<svg version="1.1" xmlns="http://www.w3.org/2000/svg" xmlns:xlink="http://www.w3.org/1999/xlink" width="800" height="800"><defs/><g transform="scale(2,2)"><g id="background-82f50641"><rect fill="white" stroke="none" x="0" y="0" width="400" height="400" class="dcg-svg-background"/></g><g id="background-images-82f50641"/><g id="graphpaper-82f50641"><g id="grid-82f50641"><g><path fill="none" stroke="rgb(0,0,0)" class="dcg-svg-minor-gridline" paint-order="fill stroke markers" d=" M 10.5 0 L 10.5 400" stroke-opacity="0.2" stroke-miterlimit="10" stroke-dasharray=""/><path fill="none" stroke="rgb(0,0,0)" class="dcg-svg-minor-gridline" paint-order="fill stroke markers" d=" M 32.5 0 L 32.5 400" stroke-opacity="0.2" stroke-miterlimit="10" stroke-dasharray=""/><path fill="none" stroke="rgb(0,0,0)" class="dcg-svg-minor-gridline" paint-order="fill stroke markers" d=" M 54.5 0 L 54.5 400" stroke-opacity="0.2" stroke-miterlimit="10" stroke-dasharray=""/><path fill="none" stroke="rgb(0,0,0)" class="dcg-svg-minor-gridline" paint-order="fill stroke markers" d=" M 75.5 0 L 75.5 400" stroke-opacity="0.2" stroke-miterlimit="10" stroke-dasharray=""/><path fill="none" stroke="rgb(0,0,0)" class="dcg-svg-minor-gridline" paint-order="fill stroke markers" d=" M 97.5 0 L 97.5 400" stroke-opacity="0.2" stroke-miterlimit="10" stroke-dasharray=""/><path fill="none" stroke="rgb(0,0,0)" class="dcg-svg-minor-gridline" paint-order="fill stroke markers" d=" M 119.5 0 L 119.5 400" stroke-opacity="0.2" stroke-miterlimit="10" stroke-dasharray=""/><path fill="none" stroke="rgb(0,0,0)" class="dcg-svg-minor-gridline" paint-order="fill stroke markers" d=" M 141.5 0 L 141.5 400" stroke-opacity="0.2" stroke-miterlimit="10" stroke-dasharray=""/><path fill="none" stroke="rgb(0,0,0)" class="dcg-svg-minor-gridline" paint-order="fill stroke markers" d=" M 163.5 0 L 163.5 400" stroke-opacity="0.2" stroke-miterlimit="10" stroke-dasharray=""/><path fill="none" stroke="rgb(0,0,0)" class="dcg-svg-minor-gridline" paint-order="fill stroke markers" d=" M 206.5 0 L 206.5 400" stroke-opacity="0.2" stroke-miterlimit="10" stroke-dasharray=""/><path fill="none" stroke="rgb(0,0,0)" class="dcg-svg-minor-gridline" paint-order="fill stroke markers" d=" M 228.5 0 L 228.5 400" stroke-opacity="0.2" stroke-miterlimit="10" stroke-dasharray=""/><path fill="none" stroke="rgb(0,0,0)" class="dcg-svg-minor-gridline" paint-order="fill stroke markers" d=" M 250.5 0 L 250.5 400" stroke-opacity="0.2" stroke-miterlimit="10" stroke-dasharray=""/><path fill="none" stroke="rgb(0,0,0)" class="dcg-svg-minor-gridline" paint-order="fill stroke markers" d=" M 271.5 0 L 271.5 400" stroke-opacity="0.2" stroke-miterlimit="10" stroke-dasharray=""/><path fill="none" stroke="rgb(0,0,0)" class="dcg-svg-minor-gridline" paint-order="fill stroke markers" d=" M 293.5 0 L 293.5 400" stroke-opacity="0.2" stroke-miterlimit="10" stroke-dasharray=""/><path fill="none" stroke="rgb(0,0,0)" class="dcg-svg-minor-gridline" paint-order="fill stroke markers" d=" M 315.5 0 L 315.5 400" stroke-opacity="0.2" stroke-miterlimit="10" stroke-dasharray=""/><path fill="none" stroke="rgb(0,0,0)" class="dcg-svg-minor-gridline" paint-order="fill stroke markers" d=" M 337.5 0 L 337.5 400" stroke-opacity="0.2" stroke-miterlimit="10" stroke-dasharray=""/><path fill="none" stroke="rgb(0,0,0)" class="dcg-svg-minor-gridline" paint-order="fill stroke markers" d=" M 359.5 0 L 359.5 400" stroke-opacity="0.2" stroke-miterlimit="10" stroke-dasharray=""/><path fill="none" stroke="rgb(0,0,0)" class="dcg-svg-minor-gridline" paint-order="fill stroke markers" d=" M 380.5 0 L 380.5 400" stroke-opacity="0.2" stroke-miterlimit="10" stroke-dasharray=""/><path fill="none" stroke="rgb(0,0,0)" class="dcg-svg-minor-gridline" paint-order="fill stroke markers" d=" M 0 390.5 L 400 390.5" stroke-opacity="0.2" stroke-miterlimit="10" stroke-dasharray=""/><path fill="none" stroke="rgb(0,0,0)" class="dcg-svg-minor-gridline" paint-order="fill stroke markers" d=" M 0 369.5 L 400 369.5" stroke-opacity="0.2" stroke-miterlimit="10" stroke-dasharray=""/><path fill="none" stroke="rgb(0,0,0)" class="dcg-svg-minor-gridline" paint-order="fill stroke markers" d=" M 0 347.5 L 400 347.5" stroke-opacity="0.2" stroke-miterlimit="10" stroke-dasharray=""/><path fill="none" stroke="rgb(0,0,0)" class="dcg-svg-minor-gridline" paint-order="fill stroke markers" d=" M 0 325.5 L 400 325.5" stroke-opacity="0.2" stroke-miterlimit="10" stroke-dasharray=""/><path fill="none" stroke="rgb(0,0,0)" class="dcg-svg-minor-gridline" paint-order="fill stroke markers" d=" M 0 303.5 L 400 303.5" stroke-opacity="0.2" stroke-miterlimit="10" stroke-dasharray=""/><path fill="none" stroke="rgb(0,0,0)" class="dcg-svg-minor-gridline" paint-order="fill stroke markers" d=" M 0 281.5 L 400 281.5" stroke-opacity="0.2" stroke-miterlimit="10" stroke-dasharray=""/><path fill="none" stroke="rgb(0,0,0)" class="dcg-svg-minor-gridline" paint-order="fill stroke markers" d=" M 0 260.5 L 400 260.5" stroke-opacity="0.2" stroke-miterlimit="10" stroke-dasharray=""/><path fill="none" stroke="rgb(0,0,0)" class="dcg-svg-minor-gridline" paint-order="fill stroke markers" d=" M 0 238.5 L 400 238.5" stroke-opacity="0.2" stroke-miterlimit="10" stroke-dasharray=""/><path fill="none" stroke="rgb(0,0,0)" class="dcg-svg-minor-gridline" paint-order="fill stroke markers" d=" M 0 216.5 L 400 216.5" stroke-opacity="0.2" stroke-miterlimit="10" stroke-dasharray=""/><path fill="none" stroke="rgb(0,0,0)" class="dcg-svg-minor-gridline" paint-order="fill stroke markers" d=" M 0 172.5 L 400 172.5" stroke-opacity="0.2" stroke-miterlimit="10" stroke-dasharray=""/><path fill="none" stroke="rgb(0,0,0)" class="dcg-svg-minor-gridline" paint-order="fill stroke markers" d=" M 0 151.5 L 400 151.5" stroke-opacity="0.2" stroke-miterlimit="10" stroke-dasharray=""/><path fill="none" stroke="rgb(0,0,0)" class="dcg-svg-minor-gridline" paint-order="fill stroke markers" d=" M 0 129.5 L 400 129.5" stroke-opacity="0.2" stroke-miterlimit="10" stroke-dasharray=""/><path fill="none" stroke="rgb(0,0,0)" class="dcg-svg-minor-gridline" paint-order="fill stroke markers" d=" M 0 107.5 L 400 107.5" stroke-opacity="0.2" stroke-miterlimit="10" stroke-dasharray=""/><path fill="none" stroke="rgb(0,0,0)" class="dcg-svg-minor-gridline" paint-order="fill stroke markers" d=" M 0 85.5 L 400 85.5" stroke-opacity="0.2" stroke-miterlimit="10" stroke-dasharray=""/><path fill="none" stroke="rgb(0,0,0)" class="dcg-svg-minor-gridline" paint-order="fill stroke markers" d=" M 0 64.5 L 400 64.5" stroke-opacity="0.2" stroke-miterlimit="10" stroke-dasharray=""/><path fill="none" stroke="rgb(0,0,0)" class="dcg-svg-minor-gridline" paint-order="fill stroke markers" d=" M 0 42.5 L 400 42.5" stroke-opacity="0.2" stroke-miterlimit="10" stroke-dasharray=""/><path fill="none" stroke="rgb(0,0,0)" class="dcg-svg-minor-gridline" paint-order="fill stroke markers" d=" M 0 20.5 L 400 20.5" stroke-opacity="0.2" stroke-miterlimit="10" stroke-dasharray=""/><path fill="none" stroke="rgb(0,0,0)" class="dcg-svg-major-gridline" paint-order="fill stroke markers" d=" M 75.5 0 L 75.5 400" stroke-opacity="0.2500000000000001" stroke-miterlimit="10" stroke-dasharray=""/><path fill="none" stroke="rgb(0,0,0)" class="dcg-svg-major-gridline" paint-order="fill stroke markers" d=" M 293.5 0 L 293.5 400" stroke-opacity="0.2500000000000001" stroke-miterlimit="10" stroke-dasharray=""/><path fill="none" stroke="rgb(0,0,0)" class="dcg-svg-major-gridline" paint-order="fill stroke markers" d=" M 0 303.5 L 400 303.5" stroke-opacity="0.2500000000000001" stroke-miterlimit="10" stroke-dasharray=""/><path fill="none" stroke="rgb(0,0,0)" class="dcg-svg-major-gridline" paint-order="fill stroke markers" d=" M 0 85.5 L 400 85.5" stroke-opacity="0.2500000000000001" stroke-miterlimit="10" stroke-dasharray=""/></g></g><g id="axis-82f50641"><g id="yaxis-82f50641"><title>Y axis</title><path fill="none" stroke="rgb(0,0,0)" class="dcg-svg-axis-line" paint-order="fill stroke markers" d=" M 185 0 L 185 400" stroke-opacity="0.9" stroke-miterlimit="10" stroke-width="1.5" stroke-dasharray=""/></g><g id="xaxis-82f50641"><title>X axis</title><path fill="none" stroke="rgb(0,0,0)" class="dcg-svg-axis-line" paint-order="fill stroke markers" d=" M 0 195 L 400 195" stroke-opacity="0.9" stroke-miterlimit="10" stroke-width="1.5" stroke-dasharray=""/></g><g><g class="dcg-svg-axis-value"><text fill="none" stroke="#ffffff" font-family="Arial" font-size="14px" font-style="normal" font-weight="normal" text-decoration="normal" x="176.44290471078494" y="211.08840891822533" text-anchor="middle" stroke-miterlimit="2" stroke-width="3" stroke-dasharray="">0</text><text fill="#000000" stroke="none" font-family="Arial" font-size="14px" font-style="normal" font-weight="normal" text-decoration="normal" x="176.44290471078494" y="211.08840891822533" text-anchor="middle">0</text></g><g class="dcg-svg-axis-value"><text fill="none" stroke="#ffffff" font-family="Arial" font-size="14px" font-style="normal" font-weight="normal" text-decoration="normal" x="74.0634229645235" y="211.08840891822533" text-anchor="middle" stroke-miterlimit="2" stroke-width="3" stroke-dasharray="">-5</text><text fill="#000000" stroke="none" font-family="Arial" font-size="14px" font-style="normal" font-weight="normal" text-decoration="normal" x="74.0634229645235" y="211.08840891822533" text-anchor="middle">-5</text></g><g class="dcg-svg-axis-value"><text fill="none" stroke="#ffffff" font-family="Arial" font-size="14px" font-style="normal" font-weight="normal" text-decoration="normal" x="294.2774645820464" y="211.08840891822533" text-anchor="middle" stroke-miterlimit="2" stroke-width="3" stroke-dasharray="">5</text><text fill="#000000" stroke="none" font-family="Arial" font-size="14px" font-style="normal" font-weight="normal" text-decoration="normal" x="294.2774645820464" y="211.08840891822533" text-anchor="middle">5</text></g><g class="dcg-svg-axis-value"><text fill="none" stroke="#ffffff" font-family="Arial" font-size="14px" font-style="normal" font-weight="normal" text-decoration="normal" x="174.11185002328494" y="308.0299023832368" text-anchor="middle" stroke-miterlimit="2" stroke-width="3" stroke-dasharray="">-5</text><text fill="#000000" stroke="none" font-family="Arial" font-size="14px" font-style="normal" font-weight="normal" text-decoration="normal" x="174.11185002328494" y="308.0299023832368" text-anchor="middle">-5</text></g><g class="dcg-svg-axis-value"><text fill="none" stroke="#ffffff" font-family="Arial" font-size="14px" font-style="normal" font-weight="normal" text-decoration="normal" x="176.44290471078494" y="90.1469154532139" text-anchor="middle" stroke-miterlimit="2" stroke-width="3" stroke-dasharray="">5</text><text fill="#000000" stroke="none" font-family="Arial" font-size="14px" font-style="normal" font-weight="normal" text-decoration="normal" x="176.44290471078494" y="90.1469154532139" text-anchor="middle">5</text></g></g></g></g><g id="expressions-82f50641"><g id="sketch-82f50641"><title>Expression 3</title><path fill="#000000" stroke="none" paint-order="stroke fill markers" d="" fill-opacity="0.4"/><path fill="#000000" stroke="none" paint-order="stroke fill markers" d="" fill-opacity="0.4"/><g><path fill="none" stroke="#000000" class="dcg-svg-curve" paint-order="fill stroke markers" d=" M 122.72413976104527 193.61691376801883 L 122.72413976104527 193.61691376801883 L 122.93750000000001 190.90152628198342 L 123.42578125 187.73397565438762 L 124.20703125000001 184.08018428210397 L 125.57421875000001 178.77973345773495 L 127.82031250000003 170.988855020885 L 131.82421875000003 157.93387737589956 L 134.06111050287004 150.81162215574673" stroke-linecap="round" stroke-linejoin="round" stroke-miterlimit="10" stroke-width="2.5" stroke-opacity="0.7" stroke-dasharray=""/></g></g><g id="sketch-82f50641"><title>Expression 4</title><path fill="#000000" stroke="none" paint-order="stroke fill markers" d="" fill-opacity="0.4"/><path fill="#000000" stroke="none" paint-order="stroke fill markers" d="" fill-opacity="0.4"/><g><path fill="none" stroke="#000000" class="dcg-svg-curve" paint-order="fill stroke markers" d=" M 122.72413319292093 193.6169137680191 L 122.72413319292093 193.6169137680191 L 122.93750000000001 195.98703192803657 L 123.42578125 198.75164081094798 L 124.20703125000001 201.94063611732687 L 125.57421875000001 206.5668205592811 L 126.60456403011703 209.75522844454" stroke-linecap="round" stroke-linejoin="round" stroke-miterlimit="10" stroke-width="2.5" stroke-opacity="0.7" stroke-dasharray=""/></g></g><g id="sketch-82f50641"><title>Expression 5</title><path fill="#000000" stroke="none" paint-order="stroke fill markers" d="" fill-opacity="0.4"/><path fill="#000000" stroke="none" paint-order="stroke fill markers" d="" fill-opacity="0.4"/><g><path fill="none" stroke="#000000" class="dcg-svg-curve" paint-order="fill stroke markers" d=" M 136.21102492386174 201.295109956262 L 136.21102492386174 201.295109956262 L 136.31640625 200.27580263564454 L 136.70703125 199.01889895505008 L 137.39062500000003 197.61648997112593 L 138.66015625000003 195.57115522725198 L 141.00390625000003 192.29618853349947 L 145.69140625 186.2322012431584 L 154.8618387678939 174.77875071804925" stroke-linecap="round" stroke-linejoin="round" stroke-miterlimit="10" stroke-width="2.5" stroke-opacity="0.7" stroke-dasharray=""/></g><g><path fill="none" stroke="#000000" class="dcg-svg-curve" paint-order="fill stroke markers" d=" M 136.21102492386174 201.29511049860406 L 136.21102492386174 201.29511049860406 L 136.31640625 202.31441781922155 L 136.70703125 203.57132149981595 L 137.39062500000003 204.9737304837401 L 138.66015625000003 207.01906522761405 L 141.00390625000003 210.29403192136658 L 145.69140625 216.3580192117076 L 146.25411775576035 217.06983848116667" stroke-linecap="round" stroke-linejoin="round" stroke-miterlimit="10" stroke-width="2.5" stroke-opacity="0.7" stroke-dasharray=""/></g></g><g id="sketch-82f50641"><title>Expression 6</title><path fill="#000000" stroke="none" paint-order="stroke fill markers" d="" fill-opacity="0.4"/><path fill="#000000" stroke="none" paint-order="stroke fill markers" d="" fill-opacity="0.4"/><g><path fill="none" stroke="#000000" class="dcg-svg-curve" paint-order="fill stroke markers" d=" M 252.9248828380041 262.67274764562046 L 252.9248828380041 262.67274764562046 L 256.82421875 266.7551305359573 L 256.95523979087295 267.11756057899294" stroke-linecap="round" stroke-linejoin="round" stroke-miterlimit="10" stroke-width="2.5" stroke-opacity="0.7" stroke-dasharray=""/></g><g><path fill="none" stroke="#000000" class="dcg-svg-curve" paint-order="fill stroke markers" d=" M 254.52520250789794 269.9500394090833 L 254.52520250789794 269.9500394090833 L 256.82421875 267.4799906220286 L 256.95523979087295 267.11756057899294" stroke-linecap="round" stroke-linejoin="round" stroke-miterlimit="10" stroke-width="2.5" stroke-opacity="0.7" stroke-dasharray=""/></g></g><g id="sketch-82f50641"><title>Expression 7</title><path fill="#000000" stroke="none" paint-order="stroke fill markers" d="" fill-opacity="0.4"/><path fill="#000000" stroke="none" paint-order="stroke fill markers" d="" fill-opacity="0.4"/><g><path fill="none" stroke="#000000" class="dcg-svg-curve" paint-order="fill stroke markers" d=" M 254.34064394771167 270.60368836987334 L 254.34064394771167 270.60368836987334 L 254.5211441241057 269.9500394090835" stroke-linecap="round" stroke-linejoin="round" stroke-miterlimit="10" stroke-width="2.5" stroke-opacity="0.7" stroke-dasharray=""/></g><g><path fill="none" stroke="#000000" class="dcg-svg-curve" paint-order="fill stroke markers" d=" M 254.34064394771167 270.60368836987334 L 254.34064394771167 270.60368836987334 L 254.48046875000003 271.16776168481397 L 255.1640625 272.37575518451695 L 256.29802281624296 274.1333927581396" stroke-linecap="round" stroke-linejoin="round" stroke-miterlimit="10" stroke-width="2.5" stroke-opacity="0.7" stroke-dasharray=""/></g></g><g id="sketch-82f50641"><title>Expression 8</title><path fill="#000000" stroke="none" paint-order="stroke fill markers" d="" fill-opacity="0.4"/><path fill="#000000" stroke="none" paint-order="stroke fill markers" d="" fill-opacity="0.4"/><g><path fill="none" stroke="#000000" class="dcg-svg-curve" paint-order="fill stroke markers" d=" M 254.34064394771147 276.4865290169839 L 254.34064394771147 276.4865290169839 L 254.48046875000003 276.11048014035833 L 255.26171875 275.2015679639386 L 256.29802281624296 274.1333927581399" stroke-linecap="round" stroke-linejoin="round" stroke-miterlimit="10" stroke-width="2.5" stroke-opacity="0.7" stroke-dasharray=""/></g><g><path fill="none" stroke="#000000" class="dcg-svg-curve" paint-order="fill stroke markers" d=" M 254.34064394771147 276.4865290169839 L 254.34064394771147 276.4865290169839 L 254.48046875000003 276.8625778936095 L 255.26171875 277.77149007002924 L 255.87114367149212 278.4038993019681" stroke-linecap="round" stroke-linejoin="round" stroke-miterlimit="10" stroke-width="2.5" stroke-opacity="0.7" stroke-dasharray=""/></g></g><g id="sketch-82f50641"><title>Expression 10</title><path fill="#000000" stroke="none" paint-order="stroke fill markers" d="" fill-opacity="0.4"/><g><path fill="none" stroke="#000000" class="dcg-svg-curve" paint-order="fill stroke markers" d=" M 173.8045554887679 190.19310051140064 L 173.8045554887679 190.19310051140064 L 174.6953125 190.87674714365994 L 175.57421875000003 191.2326132750847 L 176.35546875000003 191.28319216218568 L 177.13671875 191.08365663700027 L 178.01562500000003 190.56021428773056 L 178.99218750000003 189.6073480966932 L 179.6852173060092 188.69405680709494" stroke-linecap="round" stroke-linejoin="round" stroke-miterlimit="10" stroke-width="2.5" stroke-opacity="0.7" stroke-dasharray=""/></g></g><g id="sketch-82f50641"><title>Expression 11</title><path fill="#000000" stroke="none" paint-order="stroke fill markers" d="" fill-opacity="0.4"/><g><path fill="none" stroke="#000000" class="dcg-svg-curve" paint-order="fill stroke markers" d=" M 174.17495656654893 192.00381602676825 L 174.17495656654893 192.00381602676825 L 175.08593750000003 192.77810357770733 L 175.96484375 193.1780077423278 L 176.5128410163081 193.25480900397108" stroke-linecap="round" stroke-linejoin="round" stroke-miterlimit="10" stroke-width="2.5" stroke-opacity="0.7" stroke-dasharray=""/></g></g><g id="sketch-82f50641"><title>Expression 12</title><path fill="#000000" stroke="none" paint-order="stroke fill markers" d="" fill-opacity="0.4"/><g><path fill="none" stroke="#000000" class="dcg-svg-curve" paint-order="fill stroke markers" d=" M 174.17495656654893 192.0037842114982 L 174.17495656654893 192.0037842114982 L 173.66324588747744 191.16666666666663 L 173.4274725750582 190.38541666666666 L 173.39810894812254 190.05910247443867" stroke-linecap="round" stroke-linejoin="round" stroke-miterlimit="10" stroke-width="2.5" stroke-opacity="0.7" stroke-dasharray=""/></g></g><g id="sketch-82f50641"><title>Expression 13</title><path fill="#000000" stroke="none" paint-order="stroke fill markers" d="" fill-opacity="0.4"/><g><path fill="none" stroke="#000000" class="dcg-svg-curve" paint-order="fill stroke markers" d=" M 173.39711430320875 190.05943610776242 L 173.39711430320875 190.05943610776242 L 173.71875000000003 190.1253900661746 L 173.8045554887679 190.19312774677402" stroke-linecap="round" stroke-linejoin="round" stroke-miterlimit="10" stroke-width="2.5" stroke-opacity="0.7" stroke-dasharray=""/></g></g><g id="sketch-82f50641"><title>Expression 14</title><path fill="#000000" stroke="none" paint-order="stroke fill markers" d="" fill-opacity="0.4"/><g><path fill="none" stroke="#000000" class="dcg-svg-curve" paint-order="fill stroke markers" d=" M 255.83918866107018 281.21458983336544 L 255.83918866107018 281.21458983336544 L 256.05788566042344 280.2291666666667 L 256.06178939931897 279.3177083333333 L 255.8743222927127 278.4038993019681" stroke-linecap="round" stroke-linejoin="round" stroke-miterlimit="10" stroke-width="2.5" stroke-opacity="0.7" stroke-dasharray=""/></g></g><g id="sketch-82f50641"><title>Expression 15</title><path fill="#000000" stroke="none" paint-order="stroke fill markers" d="" fill-opacity="0.4"/><g><path fill="none" stroke="#000000" class="dcg-svg-curve" paint-order="fill stroke markers" d=" M 179.6852173060092 188.69405778916604 L 179.6852173060092 188.69405778916604 L 180.35937500000003 187.91067895281952 L 180.78705157091434 187.6199488368251" stroke-linecap="round" stroke-linejoin="round" stroke-miterlimit="10" stroke-width="2.5" stroke-opacity="0.7" stroke-dasharray=""/></g></g><g id="sketch-82f50641"><title>Expression 16</title><path fill="#000000" stroke="none" paint-order="stroke fill markers" d="" fill-opacity="0.4"/><g><path fill="none" stroke="#000000" class="dcg-svg-curve" paint-order="fill stroke markers" d=" M 176.5128410163081 193.25522800971518 L 176.5128410163081 193.25522800971518 L 177.234375 193.13575762403758 L 178.01562500000003 192.736977426349 L 178.89453125 191.9535090345009 L 179.77343750000003 190.81550346323678 L 180.70665274873716 189.21910359842542" stroke-linecap="round" stroke-linejoin="round" stroke-miterlimit="10" stroke-width="2.5" stroke-opacity="0.7" stroke-dasharray=""/></g></g><g id="sketch-82f50641"><title>Expression 17</title><path fill="#000000" stroke="none" paint-order="stroke fill markers" d="" fill-opacity="0.4"/><g><path fill="none" stroke="#000000" class="dcg-svg-curve" paint-order="fill stroke markers" d=" M 180.70661766957627 189.21916355982341 L 180.70661766957627 189.21916355982341 L 180.95032866966324 188.5625 L 180.9477364969346 187.91145833333331 L 180.90165666027087 187.7231789715619" stroke-linecap="round" stroke-linejoin="round" stroke-miterlimit="10" stroke-width="2.5" stroke-opacity="0.7" stroke-dasharray=""/></g></g><g id="sketch-82f50641"><title>Expression 18</title><path fill="#000000" stroke="none" paint-order="stroke fill markers" d="" fill-opacity="0.4"/><g><path fill="none" stroke="#000000" class="dcg-svg-curve" paint-order="fill stroke markers" d=" M 180.78007931533259 187.6234021812346 L 180.78007931533259 187.6234021812346 L 180.9020937880134 187.7240641211963" stroke-linecap="round" stroke-linejoin="round" stroke-miterlimit="10" stroke-width="2.5" stroke-opacity="0.7" stroke-dasharray=""/></g></g><g id="sketch-82f50641"><title>Expression 19</title><path fill="#000000" stroke="none" paint-order="stroke fill markers" d="" fill-opacity="0.4"/><g><path fill="none" stroke="#000000" class="dcg-svg-curve" paint-order="fill stroke markers" d=" M 135.9147040616369 220.16928244249786 L 135.9147040616369 220.16928244249786 L 141.78515625 222.55199093732463 L 147.54687500000003 224.59479513489165 L 153.30859375 226.34459270341134 L 158.97265625 227.77913329149436 L 164.5390625 228.9130630219371 L 170.10546875000003 229.77351428706106 L 175.57421875000003 230.3525461657952 L 181.04296875000003 230.66761114171624 L 181.10145672105435 230.66955409172996" stroke-linecap="round" stroke-linejoin="round" stroke-miterlimit="10" stroke-width="2.5" stroke-opacity="0.7" stroke-dasharray=""/></g></g><g id="sketch-82f50641"><title>Expression 20</title><path fill="#000000" stroke="none" paint-order="stroke fill markers" d="" fill-opacity="0.4"/><g><path fill="none" stroke="#000000" class="dcg-svg-curve" paint-order="fill stroke markers" d=" M 126.60456403011703 209.75297727264277 L 126.60456403011703 209.75297727264277 L 128.40625000000003 212.72550585137796 L 130.1640625 215.17973428024814 L 131.82421875000003 217.09321974151393 L 133.484375 218.61386245739502 L 135.14453125 219.74166242789147 L 135.9147040616369 220.13147032951872" stroke-linecap="round" stroke-linejoin="round" stroke-miterlimit="10" stroke-width="2.5" stroke-opacity="0.7" stroke-dasharray=""/></g></g><g id="sketch-82f50641"><title>Expression 21</title><path fill="#000000" stroke="none" paint-order="stroke fill markers" d="" fill-opacity="0.4"/><g><path fill="none" stroke="#000000" class="dcg-svg-curve" paint-order="fill stroke markers" d=" M 146.2488941317279 217.0613887065798 L 146.2488941317279 217.0613887065798 L 149.890625 219.9916828804072 L 153.69921875000003 222.6492682560466 L 157.31250000000003 224.78593813252175 L 160.73046875 226.462423415566 L 164.05078125 227.77012014420663 L 167.2734375 228.7369317075643 L 170.3984375 229.3899408068444 L 173.42578125 229.75540945533703 L 176.45312500000003 229.85798440829046 L 179.48046875 229.6976656657047 L 180.19506349542547 229.6214713711479" stroke-linecap="round" stroke-linejoin="round" stroke-miterlimit="10" stroke-width="2.5" stroke-opacity="0.7" stroke-dasharray=""/></g></g><g id="sketch-82f50641"><title>Expression 22</title><path fill="#000000" stroke="none" paint-order="stroke fill markers" d="" fill-opacity="0.4"/><g><path fill="none" stroke="#000000" class="dcg-svg-curve" paint-order="fill stroke markers" d=" M 154.17547719624216 122.63138852059797 L 154.17547719624216 122.63138852059797 L 158.2890625 120.27018860435021 L 162.29296875000003 118.31096797450476 L 166.19921875 116.72183974042179 L 170.0078125 115.47892934456485 L 173.71875000000003 114.55895909333583 L 177.33203125 113.93924815707527 L 180.9453125 113.59190613137616 L 184.5222196158557 113.51633061565218" stroke-linecap="round" stroke-linejoin="round" stroke-miterlimit="10" stroke-width="2.5" stroke-opacity="0.7" stroke-dasharray=""/></g></g><g id="sketch-82f50641"><title>Expression 23</title><path fill="#000000" stroke="none" paint-order="stroke fill markers" d="" fill-opacity="0.4"/><g><path fill="none" stroke="#000000" class="dcg-svg-curve" paint-order="fill stroke markers" d=" M 134.06051984286242 150.82583161262235 L 134.06051984286242 150.82583161262235 L 136.4140625 145.71209802578966 L 138.75781250000003 141.1249257852582 L 141.00390625000003 137.20203966085842 L 143.15234375000003 133.88303702202313 L 145.30078125 130.98772819760103 L 147.3515625 128.61926761975917 L 149.40234375 126.63685863728148 L 151.45629751935545 125.03833078498906" stroke-linecap="round" stroke-linejoin="round" stroke-miterlimit="10" stroke-width="2.5" stroke-opacity="0.7" stroke-dasharray=""/></g></g><g id="sketch-82f50641"><title>Expression 24</title><path fill="#000000" stroke="none" paint-order="stroke fill markers" d="" fill-opacity="0.4"/><g><path fill="none" stroke="#000000" class="dcg-svg-curve" paint-order="fill stroke markers" d=" M 151.45411868948617 125.03928080928284 L 151.45411868948617 125.03928080928284 L 155.5546875 121.47588703033256 L 159.75390625 118.2266671658258 L 163.95312500000003 115.38210115609684 L 167.95703125 113.04670043288189 L 171.765625 111.16662786893613 L 175.4765625 109.65494000583772 L 179.08984375000003 108.48668793096101 L 182.60546875 107.63757928201267 L 185.60727689076722 107.13704910912634" stroke-linecap="round" stroke-linejoin="round" stroke-miterlimit="10" stroke-width="2.5" stroke-opacity="0.7" stroke-dasharray=""/></g></g><g id="sketch-82f50641"><title>Expression 25</title><path fill="#000000" stroke="none" paint-order="stroke fill markers" d="" fill-opacity="0.4"/><g><path fill="none" stroke="#000000" class="dcg-svg-curve" paint-order="fill stroke markers" d=" M 185.60727689076722 107.13697169610805 L 185.60727689076722 107.13697169610805 L 191.1015625 106.97568735020934 L 196.66796875 107.0739295086372 L 200.31002084880518 107.28073185925331" stroke-linecap="round" stroke-linejoin="round" stroke-miterlimit="10" stroke-width="2.5" stroke-opacity="0.7" stroke-dasharray=""/></g></g><g id="sketch-82f50641"><title>Expression 26</title><path fill="#000000" stroke="none" paint-order="stroke fill markers" d="" fill-opacity="0.4"/><g><path fill="none" stroke="#000000" class="dcg-svg-curve" paint-order="fill stroke markers" d=" M 200.31002084880518 107.28081558826102 L 200.31002084880518 107.28081558826102 L 206.921875 108.76573927532064 L 213.56250000000003 110.53003547110063 L 220.30078125000003 112.59984342848571 L 227.13671875000003 114.98740692394233 L 234.07031250000003 117.70514717997247 L 241.10156250000006 120.76566286511394 L 248.23046875000003 124.18173009394036 L 255.45703125 127.9663024270609 L 261.54186731336307 131.40413065309576" stroke-linecap="round" stroke-linejoin="round" stroke-miterlimit="10" stroke-width="2.5" stroke-opacity="0.7" stroke-dasharray=""/></g></g><g id="sketch-82f50641"><title>Expression 27</title><path fill="#000000" stroke="none" paint-order="stroke fill markers" d="" fill-opacity="0.4"/><g><path fill="none" stroke="#000000" class="dcg-svg-curve" paint-order="fill stroke markers" d=" M 186.96904555907986 116.6488867956295 L 186.96904555907986 116.6488867956295 L 190.12500000000003 118.66851930275789 L 193.54296875 121.23496693289309 L 196.96093750000003 124.19566660077754 L 200.37890625 127.55061830641137 L 203.79687500000003 131.2998220497944 L 207.21484375000003 135.44327783092677 L 210.63281250000003 139.98098564980842 L 214.14843750000003 145.05965173636713 L 217.66406250000003 150.55542038694472 L 221.27734375 156.63849203453478 L 224.98828125000003 163.3445907413335 L 228.69921875 170.51542409507908 L 231.39756542398086 176.02139666950023" stroke-linecap="round" stroke-linejoin="round" stroke-miterlimit="10" stroke-width="2.5" stroke-opacity="0.7" stroke-dasharray=""/></g></g><g id="sketch-82f50641"><title>Expression 28</title><path fill="#000000" stroke="none" paint-order="stroke fill markers" d="" fill-opacity="0.4"/><g><path fill="none" stroke="#000000" class="dcg-svg-curve" paint-order="fill stroke markers" d=" M 184.5222196158557 113.51684849114366 L 184.5222196158557 113.51684849114366 L 186.90234375 114.85267667585146 L 189.44140625 116.62725004319816 L 192.17578125000003 118.94186730718076 L 194.81249999999997 121.57015188164002 L 197.44921875 124.58756262862909 L 197.6758155368212 124.86503316710349" stroke-linecap="round" stroke-linejoin="round" stroke-miterlimit="10" stroke-width="2.5" stroke-opacity="0.7" stroke-dasharray=""/></g></g><g id="sketch-82f50641"><title>Expression 29</title><path fill="#000000" stroke="none" paint-order="stroke fill markers" d="" fill-opacity="0.4"/><g><path fill="none" stroke="#000000" class="dcg-svg-curve" paint-order="fill stroke markers" d=" M 237.96195091666488 208.81207327651882 L 237.96195091666488 208.81207327651882 L 238.181385912481 205.4895833333333 L 238.20292862071534 202.234375 L 238.03300141578202 198.97916666666669 L 237.67160429768106 195.72395833333331 L 237.0926400109678 192.33854166666666 L 236.30658186617245 188.95312499999997 L 235.31342986329494 185.56770833333334 L 234.06288494986626 182.05208333333331 L 232.58900952971882 178.53645833333331 L 231.40803066980976 176.0424720422434" stroke-linecap="round" stroke-linejoin="round" stroke-miterlimit="10" stroke-width="2.5" stroke-opacity="0.7" stroke-dasharray=""/></g></g><g id="sketch-82f50641"><title>Expression 30</title><path fill="#000000" stroke="none" paint-order="stroke fill markers" d="" fill-opacity="0.4"/><g><path fill="none" stroke="#000000" class="dcg-svg-curve" paint-order="fill stroke markers" d=" M 180.5218879758205 226.35048785928015 L 180.5218879758205 226.35048785928015 L 184.265625 224.89254589108097 L 188.171875 223.07054704084908 L 192.17578125000003 220.88422575541279 L 196.375 218.24455000203824 L 200.671875 215.17604862292225 L 205.16406250000003 211.57068418097623 L 209.55859375000003 207.65063090956363 L 213.95312500000003 203.34183073089667 L 218.34765625 198.64428364497525 L 222.7421875 193.55798965179952 L 224.77392262130815 191.07501725920392" stroke-linecap="round" stroke-linejoin="round" stroke-miterlimit="10" stroke-width="2.5" stroke-opacity="0.7" stroke-dasharray=""/></g></g><g id="sketch-82f50641"><title>Expression 31</title><path fill="#000000" stroke="none" paint-order="stroke fill markers" d="" fill-opacity="0.4"/><g><path fill="none" stroke="#000000" class="dcg-svg-curve" paint-order="fill stroke markers" d=" M 186.96904555907986 116.64897318943792 L 186.96904555907986 116.64897318943792 L 189.05078125000003 119.75355669433304 L 191.19921875 123.37473220055676 L 192.0631497935038 124.9503254498552" stroke-linecap="round" stroke-linejoin="round" stroke-miterlimit="10" stroke-width="2.5" stroke-opacity="0.7" stroke-dasharray=""/></g></g><g id="sketch-82f50641"><title>Expression 32</title><path fill="#000000" stroke="none" paint-order="stroke fill markers" d="" fill-opacity="0.4"/><g><path fill="none" stroke="#000000" class="dcg-svg-curve" paint-order="fill stroke markers" d=" M 177.23185487317716 113.9545469808134 L 177.23185487317716 113.9545469808134 L 179.77343750000003 115.12195811349375 L 182.41015625000003 116.64639459252254 L 185.24218750000003 118.63916487207922 L 188.171875 121.08801606420093 L 191.1015625 123.93079745567377 L 194.03125 127.16750904649768 L 196.96093750000003 130.7981508366728 L 199.89062500000003 134.82272282619897 L 202.91796875 139.3952927748055 L 205.9453125 144.38849263627472 L 209.0703125 149.98396528429035 L 212.29296875 156.2237299401166 L 215.51562500000003 162.94015013715776 L 216.34185102711626 164.7388769867033" stroke-linecap="round" stroke-linejoin="round" stroke-miterlimit="10" stroke-width="2.5" stroke-opacity="0.7" stroke-dasharray=""/></g></g><g id="sketch-82f50641"><title>Expression 33</title><path fill="#000000" stroke="none" paint-order="stroke fill markers" d="" fill-opacity="0.4"/><g><path fill="none" stroke="#000000" class="dcg-svg-curve" paint-order="fill stroke markers" d=" M 168.12027246977354 295.2026775942729 L 168.12027246977354 295.2026775942729 L 166.78955896493656 290.2552083333333 L 165.66080683088072 285.30729166666663 L 164.73414554249962 280.359375 L 164.00957509979332 275.41145833333337 L 163.48709550276175 270.46354166666663 L 163.1725489203153 265.64583333333337 L 163.04959677535416 260.828125 L 163.11823906787828 256.01041666666663 L 163.2755110175867 252.71549514291843" stroke-linecap="round" stroke-linejoin="round" stroke-miterlimit="10" stroke-width="2.5" stroke-opacity="0.7" stroke-dasharray=""/></g></g><g id="sketch-82f50641"><title>Expression 34</title><path fill="#000000" stroke="none" paint-order="stroke fill markers" d="" fill-opacity="0.4"/><g><path fill="none" stroke="#000000" class="dcg-svg-curve" paint-order="fill stroke markers" d=" M 192.61439375043676 229.90153498508752 L 192.61439375043676 229.90153498508752 L 194.32421875000003 230.42245180324176 L 196.08203125 231.24940339104168 L 197.9375 232.44282095842294 L 199.98828125000003 234.1448491214474 L 202.0390625 236.24901436297614 L 204.08984375000003 238.75531668300914 L 206.140625 241.6637560815464 L 207.9315677316174 244.53262721502776" stroke-linecap="round" stroke-linejoin="round" stroke-miterlimit="10" stroke-width="2.5" stroke-opacity="0.7" stroke-dasharray=""/></g></g><g id="sketch-82f50641"><title>Expression 35</title><path fill="#000000" stroke="none" paint-order="stroke fill markers" d="" fill-opacity="0.4"/><g><path fill="none" stroke="#000000" class="dcg-svg-curve" paint-order="fill stroke markers" d=" M 155.87932215403492 183.74350353608733 L 155.87932215403492 183.74350353608733 L 159.55850941146363 178.40625 L 162.95426180670393 173.06770833333331 L 165.99315257324338 167.85937499999997 L 168.69548085178934 162.78125 L 171.08103830453143 157.83333333333331 L 173.16910911514154 153.015625 L 175.02560056218255 148.19791666666663 L 176.60964097396388 143.51041666666663 L 177.97445066610635 138.82291666666663 L 179.09116829183796 134.265625 L 180.00066552284923 129.70833333333331 L 180.70294235914008 125.15104166666663 L 181.18673004255155 120.72395833333331 L 181.47496933714936 116.296875 L 181.4805731183126 116.16459427326674" stroke-linecap="round" stroke-linejoin="round" stroke-miterlimit="10" stroke-width="2.5" stroke-opacity="0.7" stroke-dasharray=""/></g></g><g id="sketch-82f50641"><title>Expression 36</title><path fill="#000000" stroke="none" paint-order="stroke fill markers" d="" fill-opacity="0.4"/><g><path fill="none" stroke="#000000" class="dcg-svg-curve" paint-order="fill stroke markers" d=" M 201.5323444054826 256.0479580572935 L 201.5323444054826 256.0479580572935 L 197.06232892007935 253.53645833333331 L 193.24879198838644 251.06249999999997 L 190.17579779996746 248.71874999999997 L 187.75580631052227 246.50520833333334 L 186.00958656574488 244.55208333333334 L 185.16279559743 243.41766450915688" stroke-linecap="round" stroke-linejoin="round" stroke-miterlimit="10" stroke-width="2.5" stroke-opacity="0.7" stroke-dasharray=""/></g></g><g id="sketch-82f50641"><title>Expression 37</title><path fill="#000000" stroke="none" paint-order="stroke fill markers" d="" fill-opacity="0.4"/><path fill="#000000" stroke="none" paint-order="stroke fill markers" d="" fill-opacity="0.4"/><g><path fill="none" stroke="#000000" class="dcg-svg-curve" paint-order="fill stroke markers" d=" M 216.33749336737768 164.72893050324905 L 216.33749336737768 164.72893050324905 L 218.95569554963194 172.20592238579582 L 221.57389773188626 180.30543664260824 L 224.19209991414053 189.05963131090652 L 224.77392262130815 191.09737797673475" stroke-linecap="round" stroke-linejoin="round" stroke-miterlimit="10" stroke-width="2.5" stroke-opacity="0.7" stroke-dasharray=""/></g></g><g id="sketch-82f50641"><title>Expression 38</title><path fill="#000000" stroke="none" paint-order="stroke fill markers" d="" fill-opacity="0.4"/><path fill="#000000" stroke="none" paint-order="stroke fill markers" d="" fill-opacity="0.4"/><g><path fill="none" stroke="#000000" class="dcg-svg-curve" paint-order="fill stroke markers" d=" M 128.4428756864931 205.6745582647265 L 128.4428756864931 205.6745582647265 L 128.69921875 195.0575167202898 L 129.08984375 186.56892759763883 L 129.67578125 178.21283727373003 L 130.359375 171.2122088294569 L 131.14062500000003 165.08201369857613 L 132.01953125000003 159.61862763662526 L 132.99609375 154.71773594143545 L 133.43955333011186 152.7943183851158" stroke-linecap="round" stroke-linejoin="round" stroke-miterlimit="10" stroke-width="2.5" stroke-opacity="0.7" stroke-dasharray=""/></g></g><g id="sketch-82f50641"><title>Expression 39</title><path fill="#000000" stroke="none" paint-order="stroke fill markers" d="" fill-opacity="0.4"/><path fill="#000000" stroke="none" paint-order="stroke fill markers" d="" fill-opacity="0.4"/><g><path fill="none" stroke="#000000" class="dcg-svg-curve" paint-order="fill stroke markers" d=" M 184.88629369311607 239.86765361650987 L 184.88629369311607 239.86765361650987 L 185.046875 242.03627374378104 L 185.17123895634654 242.79746157786377" stroke-linecap="round" stroke-linejoin="round" stroke-miterlimit="10" stroke-width="2.5" stroke-opacity="0.7" stroke-dasharray=""/></g><g><path fill="none" stroke="#000000" class="dcg-svg-curve" paint-order="fill stroke markers" d=" M 184.88629369311607 239.86765361650987 L 184.88629369311607 239.86765361650987 L 185.046875 237.88445681075126 L 185.4375 236.33981731639386 L 186.02343750000003 234.99999652017272 L 186.8046875 233.80011187198136 L 187.87890625 232.63383107458796 L 189.24609375 231.56810508604224 L 191.00390625 230.58663337432648 L 192.6178204483121 229.92711353990734" stroke-linecap="round" stroke-linejoin="round" stroke-miterlimit="10" stroke-width="2.5" stroke-opacity="0.7" stroke-dasharray=""/></g></g><g id="sketch-82f50641"><title>Expression 40</title><path fill="#000000" stroke="none" paint-order="stroke fill markers" d="" fill-opacity="0.4"/><path fill="#000000" stroke="none" paint-order="stroke fill markers" d="" fill-opacity="0.4"/><g><path fill="none" stroke="#000000" class="dcg-svg-curve" paint-order="fill stroke markers" d=" M 241.46427929618994 209.37856904253687 L 241.46427929618994 209.37856904253687 L 243.8359375 206.70032973989515 L 246.08203125000003 203.77231254741565 L 248.13281250000003 200.69737082377168 L 250.0859375 197.33329237513385 L 251.84375000000003 193.85634997257927 L 253.50390625 190.08103445974666 L 255.06640625000003 185.96776747160044 L 256.43359375 181.78299885663992 L 257.703125 177.23426414807736 L 258.875 172.2376084053761 L 259.8515625 167.20908828784744 L 260.73046875 161.619695479105 L 261.41406250000006 156.08229722720753 L 262 149.70068271732234 L 262.390625 143.4284747021989 L 262.52102761005136 140.37066942206025" stroke-linecap="round" stroke-linejoin="round" stroke-miterlimit="10" stroke-width="2.5" stroke-opacity="0.7" stroke-dasharray=""/></g></g><g id="sketch-82f50641"><title>Expression 41</title><path fill="#000000" stroke="none" paint-order="stroke fill markers" d="" fill-opacity="0.4"/><path fill="#000000" stroke="none" paint-order="stroke fill markers" d="" fill-opacity="0.4"/><g><path fill="none" stroke="#000000" class="dcg-svg-curve" paint-order="fill stroke markers" d=" M 135.7783057637393 283.50236119613066 L 135.7783057637393 283.50236119613066 L 138.46484375 274.4533621186435 L 141.39453125000003 265.2966249885867 L 144.51953125 256.1916192310688 L 147.9375 246.87410235910173 L 151.55078125 237.62759847915564 L 155.45703125 228.21457963539805 L 155.9559107078558 227.05105811243104" stroke-linecap="round" stroke-linejoin="round" stroke-miterlimit="10" stroke-width="2.5" stroke-opacity="0.7" stroke-dasharray=""/></g></g><g id="sketch-82f50641"><title>Expression 42</title><path fill="#000000" stroke="none" paint-order="stroke fill markers" d="" fill-opacity="0.4"/><path fill="#000000" stroke="none" paint-order="stroke fill markers" d="" fill-opacity="0.4"/><g><path fill="none" stroke="#000000" class="dcg-svg-curve" paint-order="fill stroke markers" d=" M 134.8458705193728 286.6732528445411 L 134.8458705193728 286.6732528445411 L 134.94921875 287.61812086789126 L 135.33984375000003 288.6671564248684 L 135.92578125000003 289.52772398830143 L 136.90234375 290.46059707196866 L 138.3671875 291.40670863138405 L 140.3203125 292.284787205036 L 142.76171875000003 293.0638689024703 L 145.88671875 293.76719867831895 L 149.79296875 294.36437058319643 L 154.67578125 294.83165618523617 L 160.63281250000003 295.12629215532945 L 167.76171875000003 295.210218334488 L 176.35546875000003 295.0420494410682 L 186.51171875 294.57483219140715 L 198.42578125000003 293.75975024593447 L 209.98838312823682 292.76345562622134" stroke-linecap="round" stroke-linejoin="round" stroke-miterlimit="10" stroke-width="2.5" stroke-opacity="0.7" stroke-dasharray=""/></g><g><path fill="none" stroke="#000000" class="dcg-svg-curve" paint-order="fill stroke markers" d=" M 134.8458705193728 286.6732494350348 L 134.8458705193728 286.6732494350348 L 134.94921875 285.6729972618132 L 135.33984375000003 284.4146263982492 L 135.7781707343877 283.5023611961307" stroke-linecap="round" stroke-linejoin="round" stroke-miterlimit="10" stroke-width="2.5" stroke-opacity="0.7" stroke-dasharray=""/></g></g><g id="sketch-82f50641"><title>Expression 43</title><path fill="#000000" stroke="none" paint-order="stroke fill markers" d="" fill-opacity="0.4"/><path fill="#000000" stroke="none" paint-order="stroke fill markers" d="" fill-opacity="0.4"/><g><path fill="none" stroke="#000000" class="dcg-svg-curve" paint-order="fill stroke markers" d=" M 158.3899581300084 241.8899651557367 L 158.3899581300084 241.8899651557367 L 158.48437500000003 242.69490730621374 L 158.77734375 243.28668334131058 L 159.26562500000003 243.6404334301136 L 159.96027049923424 243.7601397720703" stroke-linecap="round" stroke-linejoin="round" stroke-miterlimit="10" stroke-width="2.5" stroke-opacity="0.7" stroke-dasharray=""/></g><g><path fill="none" stroke="#000000" class="dcg-svg-curve" paint-order="fill stroke markers" d=" M 158.3899581300084 241.88996404445683 L 158.3899581300084 241.88996404445683 L 158.48437500000003 240.85997860595182 L 158.875 239.2324377264667 L 159.65625 237.0209183736009 L 159.96027049923424 236.27693861308327" stroke-linecap="round" stroke-linejoin="round" stroke-miterlimit="10" stroke-width="2.5" stroke-opacity="0.7" stroke-dasharray=""/></g></g><g id="sketch-82f50641"><title>Expression 44</title><path fill="#000000" stroke="none" paint-order="stroke fill markers" d="" fill-opacity="0.4"/><path fill="#000000" stroke="none" paint-order="stroke fill markers" d="" fill-opacity="0.4"/><g><path fill="none" stroke="#000000" class="dcg-svg-curve" paint-order="fill stroke markers" d=" M 261.87283220543816 142.6017912082233 L 261.87283220543816 142.6017912082233 L 262.5859375 140.1626020291992 L 262.97656250000006 138.3260721911053 L 263.171875 136.77196669107474 L 263.2096187755361 135.81914564205437" stroke-linecap="round" stroke-linejoin="round" stroke-miterlimit="10" stroke-width="2.5" stroke-opacity="0.7" stroke-dasharray=""/></g><g><path fill="none" stroke="#000000" class="dcg-svg-curve" paint-order="fill stroke markers" d=" M 261.54186716997157 131.40413086092883 L 261.54186716997157 131.40413086092883 L 262.29296875 132.226203710246 L 262.78125000000006 133.16472114746074 L 263.07421875000006 134.22136058220968 L 263.2096187755361 135.8191443433705" stroke-linecap="round" stroke-linejoin="round" stroke-miterlimit="10" stroke-width="2.5" stroke-opacity="0.7" stroke-dasharray=""/></g></g><g id="sketch-82f50641"><title>Expression 45</title><path fill="#000000" stroke="none" paint-order="stroke fill markers" d="" fill-opacity="0.4"/><path fill="#000000" stroke="none" paint-order="stroke fill markers" d="" fill-opacity="0.4"/><g><path fill="none" stroke="#000000" class="dcg-svg-curve" paint-order="fill stroke markers" d=" M 159.96057046498052 236.27622377904817 L 159.96057046498052 236.27622377904817 L 161.41406250000003 233.09364137651963 L 163.5625 228.93484014204967 L 163.6612039267239 228.75272424035455" stroke-linecap="round" stroke-linejoin="round" stroke-miterlimit="10" stroke-width="2.5" stroke-opacity="0.7" stroke-dasharray=""/></g></g><g id="sketch-82f50641"><title>Expression 46</title><path fill="#000000" stroke="none" paint-order="stroke fill markers" d="" fill-opacity="0.4"/><path fill="#000000" stroke="none" paint-order="stroke fill markers" d="" fill-opacity="0.4"/><g><path fill="none" stroke="#000000" class="dcg-svg-curve" paint-order="fill stroke markers" d=" M 163.27536762868556 252.71549514291834 L 163.27536762868556 252.71549514291834 L 163.75781250000003 250.41181955683751 L 163.95312500000003 248.4437853786867 L 163.95753981148772 248.1354777900451" stroke-linecap="round" stroke-linejoin="round" stroke-miterlimit="10" stroke-width="2.5" stroke-opacity="0.7" stroke-dasharray=""/></g><g><path fill="none" stroke="#000000" class="dcg-svg-curve" paint-order="fill stroke markers" d=" M 159.96027049923424 243.78050493461728 L 159.96027049923424 243.78050493461728 L 161.21875000000003 243.8514360195046 L 162.09765625 244.13192502377154 L 162.87890625 244.68409186746558 L 163.3671875 245.33467461396327 L 163.66015625000003 246.00268250429824 L 163.85546875 246.79997186100758 L 163.95753981148772 248.1354777900451" stroke-linecap="round" stroke-linejoin="round" stroke-miterlimit="10" stroke-width="2.5" stroke-opacity="0.7" stroke-dasharray=""/></g></g><g id="sketch-82f50641"><title>Expression 47</title><path fill="#000000" stroke="none" paint-order="stroke fill markers" d="" fill-opacity="0.4"/><path fill="#000000" stroke="none" paint-order="stroke fill markers" d="" fill-opacity="0.4"/><g><path fill="none" stroke="#000000" class="dcg-svg-curve" paint-order="fill stroke markers" d=" M 173.8350591069381 221.74092989533926 L 173.8350591069381 221.74092989533926 L 174.5 222.78307400713172 L 176.35546875000003 225.1569216701889 L 180.45703125000003 229.94047233996875 L 185.66381082826624 235.75112578054686" stroke-linecap="round" stroke-linejoin="round" stroke-miterlimit="10" stroke-width="2.5" stroke-opacity="0.7" stroke-dasharray=""/></g><g><path fill="none" stroke="#000000" class="dcg-svg-curve" paint-order="fill stroke markers" d=" M 173.8350591069381 221.24904071195792 L 173.8350591069381 221.24904071195792 L 174.30468750000003 221.42422346025594 L 175.67187500000003 222.3489163054362 L 179.08984375000003 225.1215299569992 L 185.73046875 230.95624635072932 L 187.73599367307358 232.76650375851875" stroke-linecap="round" stroke-linejoin="round" stroke-miterlimit="10" stroke-width="2.5" stroke-opacity="0.7" stroke-dasharray=""/></g></g><g id="sketch-82f50641"><title>Expression 48</title><path fill="#000000" stroke="none" paint-order="stroke fill markers" d="" fill-opacity="0.4"/><path fill="#000000" stroke="none" paint-order="stroke fill markers" d="" fill-opacity="0.4"/><g><path fill="none" stroke="#000000" class="dcg-svg-curve" paint-order="fill stroke markers" d=" M 226.0715924131684 256.6439253972668 L 226.0715924131684 256.6439253972668 L 227.8203125 259.98648924722204 L 228.99218750000003 262.63352097864447 L 229.77343750000003 264.86595726939044 L 230.11564279803486 266.2024520338864" stroke-linecap="round" stroke-linejoin="round" stroke-miterlimit="10" stroke-width="2.5" stroke-opacity="0.7" stroke-dasharray=""/></g></g><g id="sketch-82f50641"><title>Expression 49</title><path fill="#000000" stroke="none" paint-order="stroke fill markers" d="" fill-opacity="0.4"/><g><path fill="none" stroke="#000000" class="dcg-svg-curve" paint-order="fill stroke markers" d=" M 214.12815987990723 267.6716307895278 L 214.12815987990723 267.6716307895278 L 215.7109375 269.9851896406644 L 217.2734375 271.86632874760124 L 218.83593750000003 273.34728479487984 L 220.11340553087496 274.2607449749235" stroke-linecap="round" stroke-linejoin="round" stroke-miterlimit="10" stroke-width="2.5" stroke-opacity="0.7" stroke-dasharray=""/></g></g><g id="sketch-82f50641"><title>Expression 50</title><path fill="#000000" stroke="none" paint-order="stroke fill markers" d="" fill-opacity="0.4"/><path fill="#000000" stroke="none" paint-order="stroke fill markers" d="" fill-opacity="0.4"/><g><path fill="none" stroke="#000000" class="dcg-svg-curve" paint-order="fill stroke markers" d=" M 201.11183024070766 235.16201791308808 L 201.11183024070766 235.16201791308808 L 201.55078125 231.98641472758803 L 202.13671875 229.09247212585922 L 202.91796875 226.265847580796 L 203.79687500000003 223.8264021216855 L 204.87109375 221.47097707248454 L 206.04296875 219.4077850657498 L 207.41015625 217.45467756502427 L 208.97265625 215.647495331809 L 210.73046875000003 214.00983319873328 L 212.78125 212.4935073673196 L 215.125 211.15418379654577 L 217.56640625000003 210.1034629140233 L 220.20312500000003 209.27949991250765 L 223.03515625000003 208.6834762551203 L 226.0625 208.31628358045245 L 229.3828125 208.17803858876866 L 232.99609375 208.2890349325267 L 237 208.67804697291945 L 241.39453125000003 209.375252776092 L 245.79963086005537 210.31435848721992" stroke-linecap="round" stroke-linejoin="round" stroke-miterlimit="10" stroke-width="2.5" stroke-opacity="0.7" stroke-dasharray=""/></g></g><g id="sketch-82f50641"><title>Expression 51</title><path fill="#000000" stroke="none" paint-order="stroke fill markers" d="" fill-opacity="0.4"/><path fill="#000000" stroke="none" paint-order="stroke fill markers" d="" fill-opacity="0.4"/><g><path fill="none" stroke="#000000" class="dcg-svg-curve" paint-order="fill stroke markers" d=" M 255.6967362659256 222.95267912827728 L 255.6967362659256 222.95267912827728 L 255.84765625 221.5075034401874 L 255.89500869572055 220.20752555192132" stroke-linecap="round" stroke-linejoin="round" stroke-miterlimit="10" stroke-width="2.5" stroke-opacity="0.7" stroke-dasharray=""/></g><g><path fill="none" stroke="#000000" class="dcg-svg-curve" paint-order="fill stroke markers" d=" M 245.72148197852525 210.27188928894998 L 245.72148197852525 210.27188928894998 L 247.9375 210.5476673287941 L 249.890625 211.0546386202144 L 251.453125 211.72887714003454 L 252.8203125 212.63238612031358 L 253.89453125 213.69486729726768 L 254.67578125 214.83579079335394 L 255.26171875 216.1301482325737 L 255.65234375 217.55824033807016 L 255.84765625 218.987013544846 L 255.89500869572055 220.20752459363317" stroke-linecap="round" stroke-linejoin="round" stroke-miterlimit="10" stroke-width="2.5" stroke-opacity="0.7" stroke-dasharray=""/></g></g><g id="sketch-82f50641"><title>Expression 52</title><path fill="#000000" stroke="none" paint-order="stroke fill markers" d="" fill-opacity="0.4"/><path fill="#000000" stroke="none" paint-order="stroke fill markers" d="" fill-opacity="0.4"/><g><path fill="none" stroke="#000000" class="dcg-svg-curve" paint-order="fill stroke markers" d=" M 242.54010137558222 242.18814345909271 L 242.54010137558222 242.18814345909271 L 244.421875 241.65236384505724 L 246.17968750000003 240.87070618095834 L 247.83984375000003 239.81512986798708 L 249.40234375 238.453246971784 L 250.76953125 236.86666871437745 L 251.94140625000003 235.09978443754076 L 252.91796875000003 233.21979319607055 L 253.79687500000003 231.06101785032908 L 254.57812500000003 228.56075073312104 L 255.1640625 226.079683126968 L 255.69151846667842 222.98985753170783" stroke-linecap="round" stroke-linejoin="round" stroke-miterlimit="10" stroke-width="2.5" stroke-opacity="0.7" stroke-dasharray=""/></g></g><g id="sketch-82f50641"><title>Expression 53</title><path fill="#000000" stroke="none" paint-order="stroke fill markers" d="" fill-opacity="0.4"/><g><path fill="none" stroke="#000000" class="dcg-svg-curve" paint-order="fill stroke markers" d=" M 217.99122523817655 243.75621262995944 L 217.99122523817655 243.75621262995944 L 221.375 242.62706803285718 L 224.6953125 241.80288759449743 L 227.91796875 241.27176864330454 L 231.14062500000003 241.00545832611994 L 234.36328125 241.00395664294362 L 237.5859375 241.26726359377554 L 240.80859375000003 241.79537917861566 L 242.54010137558222 242.18849412329567" stroke-linecap="round" stroke-linejoin="round" stroke-miterlimit="10" stroke-width="2.5" stroke-opacity="0.7" stroke-dasharray=""/></g></g><g id="sketch-82f50641"><title>Expression 54</title><path fill="#000000" stroke="none" paint-order="stroke fill markers" d="" fill-opacity="0.4"/><g><path fill="none" stroke="#000000" class="dcg-svg-curve" paint-order="fill stroke markers" d=" M 228.52150999650456 261.5062225601272 L 228.52150999650456 261.5062225601272 L 229.96875000000003 260.65501295469323 L 231.62890625 259.3086250098959 L 233.2890625 257.5669390525553 L 234.94921875 255.4299550826713 L 236.60937500000003 252.89767310024402 L 238.3671875 249.78557219860429 L 240.22265625 246.01979046537372 L 241.96489029008694 242.0343264161414" stroke-linecap="round" stroke-linejoin="round" stroke-miterlimit="10" stroke-width="2.5" stroke-opacity="0.7" stroke-dasharray=""/></g></g><g id="sketch-82f50641"><title>Expression 55</title><path fill="#000000" stroke="none" paint-order="stroke fill markers" d="" fill-opacity="0.4"/><g><path fill="none" stroke="#000000" class="dcg-svg-curve" paint-order="fill stroke markers" d=" M 252.08670556409902 260.8664976839706 L 252.08670556409902 260.8664976839706 L 249.01260972478678 257.83333333333337 L 246.49706853442297 254.96875 L 244.53702907220716 252.36458333333334 L 242.96329012899758 249.890625 L 241.73149808234882 247.54687499999997 L 240.75182136328482 245.20312499999997 L 240.6827487024118 245.01115272507283" stroke-linecap="round" stroke-linejoin="round" stroke-miterlimit="10" stroke-width="2.5" stroke-opacity="0.7" stroke-dasharray=""/></g></g><g id="sketch-82f50641"><title>Expression 56</title><path fill="#000000" stroke="none" paint-order="stroke fill markers" d="" fill-opacity="0.4"/><path fill="#000000" stroke="none" paint-order="stroke fill markers" d="" fill-opacity="0.4"/><g><path fill="none" stroke="#000000" class="dcg-svg-curve" paint-order="fill stroke markers" d=" M 251.7200509870122 270.4075936816362 L 251.7200509870122 270.4075936816362 L 251.7423230662556 269.46534364110346" stroke-linecap="round" stroke-linejoin="round" stroke-miterlimit="10" stroke-width="2.5" stroke-opacity="0.7" stroke-dasharray=""/></g><g><path fill="none" stroke="#000000" class="dcg-svg-curve" paint-order="fill stroke markers" d=" M 246.46147949704596 270.4075936816363 L 246.46147949704596 270.4075936816363 L 248.13281250000003 268.16612696864894 L 249.3046875 266.94529073556146 L 250.18359375000003 266.37720473323384 L 250.76953125 266.31523767949034 L 251.16015625 266.56032083366097 L 251.453125 267.08506902331993 L 251.64843750000003 267.91435472590297 L 251.7423230662556 269.46534364110346" stroke-linecap="round" stroke-linejoin="round" stroke-miterlimit="10" stroke-width="2.5" stroke-opacity="0.7" stroke-dasharray=""/></g></g><g id="sketch-82f50641"><title>Expression 57</title><path fill="#000000" stroke="none" paint-order="stroke fill markers" d="" fill-opacity="0.4"/><g><path fill="none" stroke="#000000" class="dcg-svg-curve" paint-order="fill stroke markers" d=" M 198.02531074200633 263.60964448941957 L 198.02531074200633 263.60964448941957 L 197.1049366811241 261.34895833333337 L 196.43103158351383 259.13541666666663 L 196.00219526619148 257.0520833333333 L 195.77256118301017 254.96875 L 195.74212933396987 252.88541666666666 L 195.74843352858758 252.71549514291843" stroke-linecap="round" stroke-linejoin="round" stroke-miterlimit="10" stroke-width="2.5" stroke-opacity="0.7" stroke-dasharray=""/></g></g><g id="sketch-82f50641"><title>Expression 58</title><path fill="#000000" stroke="none" paint-order="stroke fill markers" d="" fill-opacity="0.4"/><path fill="#000000" stroke="none" paint-order="stroke fill markers" d="" fill-opacity="0.4"/><g><path fill="none" stroke="#000000" class="dcg-svg-curve" paint-order="fill stroke markers" d=" M 246.24007490289674 270.7344181620314 L 246.24007490289674 270.7344181620314 L 246.46147949704593 270.40759368163634" stroke-linecap="round" stroke-linejoin="round" stroke-miterlimit="10" stroke-width="2.5" stroke-opacity="0.7" stroke-dasharray=""/></g></g><g id="sketch-82f50641"><title>Expression 59</title><path fill="#000000" stroke="none" paint-order="stroke fill markers" d="" fill-opacity="0.4"/><g><path fill="none" stroke="#000000" class="dcg-svg-curve" paint-order="fill stroke markers" d=" M 250.04834910519082 275.0284015977015 L 250.04834910519082 275.0284015977015 L 251.35546875 275.7277373455433 L 252.52734375000003 276.0213850835298 L 253.60156250000003 276.0137167865845 L 254.67578125 275.74123985563097 L 254.8199865189583 275.68450174209454" stroke-linecap="round" stroke-linejoin="round" stroke-miterlimit="10" stroke-width="2.5" stroke-opacity="0.7" stroke-dasharray=""/></g></g><g id="sketch-82f50641"><title>Expression 60</title><path fill="#000000" stroke="none" paint-order="stroke fill markers" d="" fill-opacity="0.4"/><g><path fill="none" stroke="#000000" class="dcg-svg-curve" paint-order="fill stroke markers" d=" M 240.50071661791722 279.2150515163502 L 240.50071661791722 279.2150515163502 L 242.27343750000003 277.64389153096846 L 244.12890625000003 276.3856082759053 L 245.88671875 275.5579358897189 L 247.44921875000003 275.11986325261864 L 249.01171875000003 274.961918757279 L 250.04834910519082 275.011706313828" stroke-linecap="round" stroke-linejoin="round" stroke-miterlimit="10" stroke-width="2.5" stroke-opacity="0.7" stroke-dasharray=""/></g></g><g id="sketch-82f50641"><title>Expression 61</title><path fill="#000000" stroke="none" paint-order="stroke fill markers" d="" fill-opacity="0.4"/><g><path fill="none" stroke="#000000" class="dcg-svg-curve" paint-order="fill stroke markers" d=" M 228.58687489258358 288.7733864159418 L 228.58687489258358 288.7733864159418 L 230.26171875 289.41638208596476 L 231.82421875000003 289.72604864067307 L 233.38671875 289.7555870536207 L 234.8515625 289.5288660620114 L 236.4140625 289.01565620029737 L 238.07421875000003 288.1634334418985 L 239.83203125 286.9163910085734 L 241.6576752785156 285.24590416178836" stroke-linecap="round" stroke-linejoin="round" stroke-miterlimit="10" stroke-width="2.5" stroke-opacity="0.7" stroke-dasharray=""/></g></g><g id="sketch-82f50641"><title>Expression 62</title><path fill="#000000" stroke="none" paint-order="stroke fill markers" d="" fill-opacity="0.4"/><g><path fill="none" stroke="#000000" class="dcg-svg-curve" paint-order="fill stroke markers" d=" M 203.46932415929052 289.07478918095376 L 203.46932415929052 289.07478918095376 L 206.82421875 289.10466712111185 L 208.07754933286049 289.0495591481285" stroke-linecap="round" stroke-linejoin="round" stroke-miterlimit="10" stroke-width="2.5" stroke-opacity="0.7" stroke-dasharray=""/></g></g><g id="sketch-82f50641"><title>Expression 63</title><path fill="#000000" stroke="none" paint-order="stroke fill markers" d="" fill-opacity="0.4"/><g><path fill="none" stroke="#000000" class="dcg-svg-curve" paint-order="fill stroke markers" d=" M 210.84902092661036 294.0850687826832 L 210.84902092661036 294.0850687826832 L 213.07421875 292.21206064501956 L 215.41796875000003 290.64882906638263 L 217.56640625000003 289.5849939727648 L 219.51953125000003 288.92426131543584 L 219.77568690113344 288.8592497434312" stroke-linecap="round" stroke-linejoin="round" stroke-miterlimit="10" stroke-width="2.5" stroke-opacity="0.7" stroke-dasharray=""/></g></g><g id="sketch-82f50641"><title>Expression 64</title><path fill="#000000" stroke="none" paint-order="stroke fill markers" d="" fill-opacity="0.4"/><g><path fill="none" stroke="#000000" class="dcg-svg-curve" paint-order="fill stroke markers" d=" M 219.77568690113344 288.85914225449096 L 219.77568690113344 288.85914225449096 L 221.66796875000003 289.3415975890644 L 223.52343750000003 289.5487049682707 L 225.37890625 289.4924627142071 L 227.234375 289.1728708268735 L 229.08984375000003 288.58992930627005 L 231.04296875000003 287.6918015090274 L 233.09375000000003 286.43471741299555 L 235.33984375000003 284.6887838353041 L 237.5859375 282.5569445623223 L 239.83203125 280.03919959405033 L 242.07812500000003 277.1355489304881 L 244.421875 273.6942143776902 L 246.24411215339262 270.7282709566934" stroke-linecap="round" stroke-linejoin="round" stroke-miterlimit="10" stroke-width="2.5" stroke-opacity="0.7" stroke-dasharray=""/></g></g><g id="sketch-82f50641"><title>Expression 65</title><path fill="#000000" stroke="none" paint-order="stroke fill markers" d="" fill-opacity="0.4"/><g><path fill="none" stroke="#000000" class="dcg-svg-curve" paint-order="fill stroke markers" d=" M 241.6576752785156 285.2456945615591 L 241.6576752785156 285.2456945615591 L 243.34765625000003 283.3403993171864 L 245.00781250000003 281.84411573839685 L 246.76562500000003 280.66533186018705 L 248.32812500000003 279.967684145646 L 249.79296875 279.61294912355504 L 251.16015625 279.5431958822449 L 252.52734375000003 279.7257639450943 L 253.9921875 280.20137199026306 L 255.45703125 280.9666345937783 L 255.84403655752942 281.2171852042392" stroke-linecap="round" stroke-linejoin="round" stroke-miterlimit="10" stroke-width="2.5" stroke-opacity="0.7" stroke-dasharray=""/></g></g><g id="sketch-82f50641"><title>Expression 66</title><path fill="#000000" stroke="none" paint-order="stroke fill markers" d="" fill-opacity="0.4"/><g><path fill="none" stroke="#000000" class="dcg-svg-curve" paint-order="fill stroke markers" d=" M 203.46874313799202 289.08016566153924 L 203.46874313799202 289.08016566153924 L 204.00373801593852 286.7395833333333 L 204.3295028097419 284.39583333333337 L 204.44425723959824 282.18229166666663 L 204.3716111301748 279.96875 L 204.1115644814716 277.7552083333333 L 203.63196086771268 275.41145833333337 L 202.94226114763313 273.0677083333333 L 202.042465321233 270.7239583333333 L 200.86475250024372 268.25 L 199.37216133262737 265.64583333333337 L 198.02441923745147 263.60964448941957" stroke-linecap="round" stroke-linejoin="round" stroke-miterlimit="10" stroke-width="2.5" stroke-opacity="0.7" stroke-dasharray=""/></g></g><g id="sketch-82f50641"><title>Expression 67</title><path fill="#000000" stroke="none" paint-order="stroke fill markers" d="" fill-opacity="0.4"/><path fill="#000000" stroke="none" paint-order="stroke fill markers" d="" fill-opacity="0.4"/><g><path fill="none" stroke="#000000" class="dcg-svg-curve" paint-order="fill stroke markers" d=" M 251.71951161494405 270.41436833500643 L 251.71951161494405 270.41436833500643 L 252.13671875 270.7444003196721 L 252.72265625 270.8516250071597 L 253.40625 270.66614507654305 L 254.28515625000003 270.12408180402883 L 254.62389183072128 269.8501703499389" stroke-linecap="round" stroke-linejoin="round" stroke-miterlimit="10" stroke-width="2.5" stroke-opacity="0.7" stroke-dasharray=""/></g></g><g id="sketch-82f50641"><title>Expression 68</title><path fill="#000000" stroke="none" paint-order="stroke fill markers" d="" fill-opacity="0.4"/><g><path fill="none" stroke="#000000" class="dcg-svg-curve" paint-order="fill stroke markers" d=" M 210.84914348579056 294.06968606223677 L 210.84914348579056 294.06968606223677 L 209.4266778242041 291.81770833333337 L 208.36981778410888 289.734375 L 207.56196053668998 287.65104166666663 L 207.03073948167705 285.6979166666667 L 206.73238459692 283.875 L 206.62467247530574 282.0520833333333 L 206.7076031168342 280.2291666666667 L 206.9811765215055 278.40625 L 207.44539268931948 276.5833333333333 L 208.15432226189344 274.63020833333337 L 208.80309967933746 273.2182842130336" stroke-linecap="round" stroke-linejoin="round" stroke-miterlimit="10" stroke-width="2.5" stroke-opacity="0.7" stroke-dasharray=""/></g></g><g id="sketch-82f50641"><title>Expression 69</title><path fill="#000000" stroke="none" paint-order="stroke fill markers" d="" fill-opacity="0.4"/><g><path fill="none" stroke="#000000" class="dcg-svg-curve" paint-order="fill stroke markers" d=" M 90.75013585179781 262.3241348665324 L 90.75013585179781 262.3241348665324 L 89.98654657205434 259.13541666666663 L 89.44402219106314 256.01041666666663 L 89.10522736771618 252.88541666666666 L 88.97016210201343 249.76041666666666 L 89.0388263939549 246.63541666666663 L 89.31122024354059 243.51041666666666 L 89.78734365077048 240.38541666666666 L 90.46719661564462 237.26041666666663 L 91.35077913816296 234.13541666666666 L 92.48781710269087 230.88020833333331 L 93.84591578514875 227.625 L 95.49283962448496 224.23958333333334 L 97.45617699829725 220.72395833333331 L 99.67735959350297 217.20833333333334 L 102.25315501524302 213.56249999999997 L 105.21327382400719 209.78645833333331 L 108.5884876717313 205.88020833333331 L 111.11835741805334 203.16890391503122" stroke-linecap="round" stroke-linejoin="round" stroke-miterlimit="10" stroke-width="2.5" stroke-opacity="0.7" stroke-dasharray=""/></g></g><g id="sketch-82f50641"><title>Expression 70</title><path fill="#000000" stroke="none" paint-order="stroke fill markers" d="" fill-opacity="0.4"/><g><path fill="none" stroke="#000000" class="dcg-svg-curve" paint-order="fill stroke markers" d=" M 99.20795725353597 266.8125243972909 L 99.20795725353597 266.8125243972909 L 101.64843750000001 268.1059655713733 L 103.99218749999999 269.0264928373388 L 106.23828125 269.612943588404 L 108.38671875 269.90306946867327 L 110.53515625000001 269.92838671493433 L 112.68359375 269.68889532718714 L 114.83203125 269.1845953054317 L 117.078125 268.374235224631 L 119.42187500000001 267.2200634406806 L 121.86328125 265.6826869336453 L 124.3167926673518 263.7931869387795" stroke-linecap="round" stroke-linejoin="round" stroke-miterlimit="10" stroke-width="2.5" stroke-opacity="0.7" stroke-dasharray=""/></g></g><g id="sketch-82f50641"><title>Expression 71</title><path fill="#000000" stroke="none" paint-order="stroke fill markers" d="" fill-opacity="0.4"/><g><path fill="none" stroke="#000000" class="dcg-svg-curve" paint-order="fill stroke markers" d=" M 117.34671591546036 195.97842490417338 L 117.34671591546036 195.97842490417338 L 118.73828125000001 198.52197132260605 L 120.10546875000001 200.5881887656607 L 121.47265625000001 202.2254599916441 L 122.7421875 203.3617013285471 L 124.109375 204.17171913589314 L 124.96390513853397 204.46016510406585" stroke-linecap="round" stroke-linejoin="round" stroke-miterlimit="10" stroke-width="2.5" stroke-opacity="0.7" stroke-dasharray=""/></g></g><g id="sketch-82f50641"><title>Expression 72</title><path fill="#000000" stroke="none" paint-order="stroke fill markers" d="" fill-opacity="0.4"/><path fill="#000000" stroke="none" paint-order="stroke fill markers" d="" fill-opacity="0.4"/><g><path fill="none" stroke="#000000" class="dcg-svg-curve" paint-order="fill stroke markers" d=" M 108.67834348623369 199.76026017949124 L 108.67834348623369 199.76026017949124 L 108.77734375000001 202.36325170345765 L 109.06961680916103 205.35209144406994" stroke-linecap="round" stroke-linejoin="round" stroke-miterlimit="10" stroke-width="2.5" stroke-opacity="0.7" stroke-dasharray=""/></g><g><path fill="none" stroke="#000000" class="dcg-svg-curve" paint-order="fill stroke markers" d=" M 108.67834348623369 199.76025875592802 L 108.67834348623369 199.76025875592802 L 108.77734375000001 197.58188073352002 L 109.0703125 195.8438727484765 L 109.46093749999999 194.7169398281574 L 109.94921875000001 193.92010084449424 L 110.53515625000001 193.38868017281578 L 111.31640625000001 193.07670338780085 L 112.19531250000001 193.05328758467888 L 113.26953125000001 193.32562873590047 L 114.63671875000001 193.99127035873104 L 116.39453125 195.2016907144688 L 117.34671591546036 195.97928017431718" stroke-linecap="round" stroke-linejoin="round" stroke-miterlimit="10" stroke-width="2.5" stroke-opacity="0.7" stroke-dasharray=""/></g></g><g id="sketch-82f50641"><title>Expression 73</title><path fill="#000000" stroke="none" paint-order="stroke fill markers" d="" fill-opacity="0.4"/><path fill="#000000" stroke="none" paint-order="stroke fill markers" d="" fill-opacity="0.4"/><g><path fill="none" stroke="#000000" class="dcg-svg-curve" paint-order="fill stroke markers" d=" M 88.39119215772692 269.4797558922862 L 88.39119215772692 269.4797558922862 L 88.56250000000001 270.84521207916936 L 88.85546875 271.46736732608764 L 89.34375000000001 271.9161168816687 L 90.02734375000001 272.1190694470881 L 90.90624999999999 272.057251917616 L 92.07812500000001 271.6839074165094 L 93.73828125000001 270.8388277626919 L 96.08203125 269.28441843172857 L 99.20795725353597 266.8260877215752" stroke-linecap="round" stroke-linejoin="round" stroke-miterlimit="10" stroke-width="2.5" stroke-opacity="0.7" stroke-dasharray=""/></g><g><path fill="none" stroke="#000000" class="dcg-svg-curve" paint-order="fill stroke markers" d=" M 88.39119215772692 269.4797539185422 L 88.39119215772692 269.4797539185422 L 88.56250000000001 267.62499182469594 L 89.05078125 265.3783707662275 L 89.92968750000001 262.45735881642236 L 90.41862727121712 261.0451617332533" stroke-linecap="round" stroke-linejoin="round" stroke-miterlimit="10" stroke-width="2.5" stroke-opacity="0.7" stroke-dasharray=""/></g></g><g id="sketch-82f50641"><title>Expression 75</title><path fill="#000000" stroke="none" paint-order="stroke fill markers" d="" fill-opacity="0.4"/><path fill="#000000" stroke="none" paint-order="stroke fill markers" d="" fill-opacity="0.4"/><g><path fill="none" stroke="#000000" class="dcg-svg-curve" paint-order="fill stroke markers" d=" M 196.36513595904978 160.59323703378706 L 196.36513595904978 160.59323703378706 L 196.47265625 163.0573582364078 L 196.765625 165.20046208348717 L 197.25390625000003 167.13737722775628 L 197.83984375 168.55135381940167 L 198.42578125000003 169.44382887340223 L 199.109375 170.0406089581473 L 199.79296875000003 170.2593665892526 L 200.37890625 170.1807292980477 L 201.06250000000003 169.7877633866637 L 201.74609374999997 169.05178256722783 L 202.42968750000003 167.91274778503814 L 203.01562500000003 166.50915262543876 L 203.50390625 164.8710822899241 L 203.89453125000003 162.97306361402104 L 204.18750000000006 160.5247871492832 L 204.27446691457385 158.25132665037398" stroke-linecap="round" stroke-linejoin="round" stroke-miterlimit="10" stroke-width="2.5" stroke-opacity="0.7" stroke-dasharray=""/></g><g><path fill="none" stroke="#000000" class="dcg-svg-curve" paint-order="fill stroke markers" d=" M 196.36513595904978 160.59323703378706 L 196.36513595904978 160.59323703378706 L 196.47265625 158.06544347070505 L 196.765625 155.7488466792796 L 197.25390625000003 153.52277662776712 L 197.83984375 151.76181414742967 L 198.52343750000003 150.35302893011024 L 199.20703125 149.41005592764907 L 199.89062500000003 148.83585868122233 L 200.57421875 148.59212378241597 L 201.16015625000003 148.642437285581 L 201.74609374999997 148.94814614165637 L 202.42968750000003 149.68236405370536 L 203.01562500000003 150.73897332461263 L 203.50390625 152.0878887528839 L 203.89453125000003 153.7545835029923 L 204.18750000000006 156.02936702338403 L 204.27446691457385 158.25132665037398" stroke-linecap="round" stroke-linejoin="round" stroke-miterlimit="10" stroke-width="2.5" stroke-opacity="0.7" stroke-dasharray=""/></g></g><g id="sketch-82f50641"><title>Expression 76</title><path fill="#000000" stroke="none" paint-order="stroke fill markers" d="" fill-opacity="0.4"/><path fill="#000000" stroke="none" paint-order="stroke fill markers" d="" fill-opacity="0.4"/><g><path fill="none" stroke="#000000" class="dcg-svg-curve" paint-order="fill stroke markers" d=" M 197.6301879225648 161.8313014416606 L 197.6301879225648 161.8313014416606 L 197.74218750000003 164.12318482526953 L 198.03515625 165.88279138606381 L 198.42578125000003 167.04683592932517 L 198.91406250000003 167.78096400544803 L 199.40234375 168.0471677036145 L 199.89062500000003 167.96798934422213 L 200.37890625 167.5892677438481 L 200.96484375000003 166.74730847439596 L 201.55078125 165.42800422952672 L 202.0390625 163.8333198600113 L 202.42968750000003 162.00168818493583 L 202.72265625000003 159.8214005966085 L 202.85675087541154 157.08628143195438" stroke-linecap="round" stroke-linejoin="round" stroke-miterlimit="10" stroke-width="2.5" stroke-opacity="0.7" stroke-dasharray=""/></g><g><path fill="none" stroke="#000000" class="dcg-svg-curve" paint-order="fill stroke markers" d=" M 197.6301879225648 161.8313014416606 L 197.6301879225648 161.8313014416606 L 197.74218750000003 159.33605678954558 L 198.1328125 156.5018718491669 L 198.62109375000003 154.45267385372912 L 199.20703125 152.8129742433547 L 199.79296875000003 151.72697296905295 L 200.37890625 151.0823980428014 L 200.96454305993277 150.86045151105034 L 201.35546875 150.9702498466615 L 201.84375 151.47220570089434 L 202.234375 152.29784478387666 L 202.52734375000003 153.36862393104252 L 202.72265625000003 154.59464223167157 L 202.85675087541154 157.08628143195438" stroke-linecap="round" stroke-linejoin="round" stroke-miterlimit="10" stroke-width="2.5" stroke-opacity="0.7" stroke-dasharray=""/></g></g><g id="sketch-82f50641"><title>Expression 77</title><path fill="#000000" stroke="none" paint-order="stroke fill markers" d="" fill-opacity="0.4"/><path fill="#000000" stroke="none" paint-order="stroke fill markers" d="" fill-opacity="0.4"/><g><path fill="none" stroke="#000000" class="dcg-svg-curve" paint-order="fill stroke markers" d=" M 199.21624825441646 176.04247239340748 L 199.21624825441646 176.04247239340748 L 199.3046875 178.5289557403085 L 199.59765625000003 180.72674225267008 L 199.89062500000003 181.5605768302632 L 200.08778020213654 181.70742970242398 L 200.28124999999997 181.56608535403342 L 200.4765625 181.1125397949773 L 200.671875 180.2469281101536 L 200.8671875 178.5774070408597 L 200.95931214985666 176.04247239340748" stroke-linecap="round" stroke-linejoin="round" stroke-miterlimit="10" stroke-width="2.5" stroke-opacity="0.7" stroke-dasharray=""/></g><g><path fill="none" stroke="#000000" class="dcg-svg-curve" paint-order="fill stroke markers" d=" M 199.21624825441646 176.04247169107927 L 199.21624825441646 176.04247169107927 L 199.3046875 173.55598834417827 L 199.59765625000003 171.3582018318167 L 199.89062500000003 170.52436725422353 L 200.08778020213654 170.37751438206277 L 200.28124999999997 170.51885873045336 L 200.4765625 170.97240428950946 L 200.671875 171.83801597433313 L 200.8671875 173.50753704362708 L 200.95931214985666 176.04247169107927" stroke-linecap="round" stroke-linejoin="round" stroke-miterlimit="10" stroke-width="2.5" stroke-opacity="0.7" stroke-dasharray=""/></g></g><g id="sketch-82f50641"><title>Expression 78</title><path fill="#000000" stroke="none" paint-order="stroke fill markers" d="" fill-opacity="0.4"/><path fill="#000000" stroke="none" paint-order="stroke fill markers" d="" fill-opacity="0.4"/><g><path fill="none" stroke="#000000" class="dcg-svg-curve" paint-order="fill stroke markers" d=" M 200.08777990827795 178.00341892461358 L 200.08777990827795 178.00341892461358 L 197.5903186137302 177.88541666666666 L 196.13525419615988 177.625 L 195.7301204635361 177.3497699638235 L 195.79856392424924 177.23437499999997 L 196.5223749278048 176.97395833333331 L 197.32935262949488 176.84374999999997 L 200.08777990827795 176.69612100303345" stroke-linecap="round" stroke-linejoin="round" stroke-miterlimit="10" stroke-width="2.5" stroke-opacity="0.7" stroke-dasharray=""/></g><g><path fill="none" stroke="#000000" class="dcg-svg-curve" paint-order="fill stroke markers" d=" M 200.08778049599516 178.00341892461358 L 200.08778049599516 178.00341892461358 L 202.5852417905429 177.88541666666666 L 204.0403062081132 177.625 L 204.44543994073703 177.3497699638235 L 204.37699648002388 177.23437499999997 L 203.6531854764683 176.97395833333331 L 202.8462077747782 176.84374999999997 L 200.08778049599516 176.69612100303345" stroke-linecap="round" stroke-linejoin="round" stroke-miterlimit="10" stroke-width="2.5" stroke-opacity="0.7" stroke-dasharray=""/></g></g><g id="sketch-82f50641"><title>Expression 79</title><path fill="#000000" stroke="none" paint-order="stroke fill markers" d="" fill-opacity="0.4"/><path fill="#000000" stroke="none" paint-order="stroke fill markers" d="" fill-opacity="0.4"/><g><path fill="none" stroke="#000000" class="dcg-svg-curve" paint-order="fill stroke markers" d=" M 201.4919969434887 255.61976657457643 L 201.4919969434887 255.61976657457643 L 201.67675365527367 257.49452367747017 L 202.06579832884356 259.0779696050819 L 202.64936533919843 260.5725498456103 L 203.42745468633817 261.9869964782737 L 204.40006637026292 263.3069878149556 L 205.6644615593651 264.59806520226823 L 207.2206402536447 265.7651308947152 L 208.97134128470918 266.68582336007876 L 210.72204231577373 267.28296721974414 L 212.47274334683829 267.60396164335714 L 214.22344437790284 267.67041315576193 L 215.97414540896733 267.4865042538248 L 217.7248464400319 267.0404233065077 L 219.3782863027039 266.34991772926026 L 220.3508979866287 265.80118025589707" stroke-linecap="round" stroke-linejoin="round" stroke-miterlimit="10" stroke-width="2.5" stroke-opacity="0.7" stroke-dasharray=""/></g><g><path fill="none" stroke="#000000" class="dcg-svg-curve" paint-order="fill stroke markers" d=" M 201.4919969434887 255.083991994967 L 201.4919969434887 255.083991994967 L 201.67675365527367 253.20923489207325 L 202.06579832884356 251.62578896446155 L 202.64936533919843 250.1312087239331 L 203.42745468633817 248.71676209126974 L 204.40006637026292 247.39677075458778 L 205.6644615593651 246.1056933672751 L 207.2206402536447 244.9386276748282 L 208.97134128470918 244.01793520946467 L 210.72204231577373 243.4207913497993 L 212.47274334683829 243.0997969261863 L 214.22344437790284 243.03334541378143 L 215.97414540896733 243.21725431571855 L 217.7248464400319 243.6633352630357 L 219.3782863027039 244.35384084028314 L 220.3508979866287 244.90257831364633" stroke-linecap="round" stroke-linejoin="round" stroke-miterlimit="10" stroke-width="2.5" stroke-opacity="0.7" stroke-dasharray=""/></g></g><g id="sketch-82f50641"><title>Expression 80</title><path fill="#000000" stroke="none" paint-order="stroke fill markers" d="" fill-opacity="0.4"/><path fill="#000000" stroke="none" paint-order="stroke fill markers" d="" fill-opacity="0.4"/><g><path fill="none" stroke="#000000" class="dcg-svg-curve" paint-order="fill stroke markers" d=" M 220.3508979866287 265.80118025589707 L 220.3508979866287 265.80118025589707 L 221.86328125 264.68618336603333 L 223.23046875 263.3049538012035 L 224.30468750000003 261.8223994444776 L 225.08593750000003 260.3384831839873 L 225.67187500000003 258.71551905513587 L 225.96484375000003 257.4208180146274 L 226.07182262572732 256.643925397267" stroke-linecap="round" stroke-linejoin="round" stroke-miterlimit="10" stroke-width="2.5" stroke-opacity="0.7" stroke-dasharray=""/></g></g><g id="sketch-82f50641"><title>Expression 81</title><path fill="#000000" stroke="none" paint-order="stroke fill markers" d="" fill-opacity="0.4"/><path fill="#000000" stroke="none" paint-order="stroke fill markers" d="" fill-opacity="0.4"/><g><path fill="none" stroke="#000000" class="dcg-svg-curve" paint-order="fill stroke markers" d=" M 219.89519530909143 273.20406839241934 L 219.89519530909143 273.20406839241934 L 220.0078125 273.9948600602841 L 220.30078125000003 274.5661616238066 L 220.78906250000003 274.99177300624416 L 221.57031250000003 275.2459881406286 L 222.44921875 275.2379898699387 L 223.62109375000003 274.9384324672278 L 224.98828125000003 274.28182662341817 L 226.45312500000003 273.2509003009322 L 227.91796875 271.8360975052277 L 228.99218750000003 270.43070866939365 L 229.67578125000003 269.19878067295485 L 230.06640625000003 268.13421745120286 L 230.2302928405852 267.00300987352307" stroke-linecap="round" stroke-linejoin="round" stroke-miterlimit="10" stroke-width="2.5" stroke-opacity="0.7" stroke-dasharray=""/></g><g><path fill="none" stroke="#000000" class="dcg-svg-curve" paint-order="fill stroke markers" d=" M 219.89519530909143 273.20406839241934 L 219.89519530909143 273.20406839241934 L 220.0078125 272.27813609546433 L 220.39843750000003 271.12263022026957 L 221.08203125000003 269.85591090706686 L 222.05859375 268.54235123891084 L 223.328125 267.25013795414395 L 224.89062500000003 266.0750653566528 L 226.45312500000003 265.28772085481626 L 227.72265624999997 264.9632733350254 L 228.69921875 264.9844870195145 L 229.3828125 265.2430263035493 L 229.87109375000003 265.7041537025565 L 230.16406250000006 266.3829975449113 L 230.2302928405852 267.00300987352307" stroke-linecap="round" stroke-linejoin="round" stroke-miterlimit="10" stroke-width="2.5" stroke-opacity="0.7" stroke-dasharray=""/></g></g><g id="sketch-82f50641"><title>Expression 82</title><path fill="#000000" stroke="none" paint-order="stroke fill markers" d="" fill-opacity="0.4"/><path fill="#000000" stroke="none" paint-order="stroke fill markers" d="" fill-opacity="0.4"/><g><path fill="none" stroke="#000000" class="dcg-svg-curve" paint-order="fill stroke markers" d=" M 226.10405235712784 282.32623680249816 L 226.10405235712784 282.32623680249816 L 226.25781250000003 283.06687380476615 L 226.6484375 283.53273962439255 L 227.33203125 283.80971456751695 L 228.2109375 283.8339254995735 L 229.3828125 283.58546449004194 L 230.84765625 282.9948875511055 L 232.60546875000003 281.97699585909896 L 234.46093750000003 280.55974128115184 L 236.12109375000003 278.92568717566417 L 237.29296875000003 277.42161976477314 L 237.97656250000003 276.22377200317806 L 238.3671875 275.0875185974005 L 238.42815807945414 274.5191671362759" stroke-linecap="round" stroke-linejoin="round" stroke-miterlimit="10" stroke-width="2.5" stroke-opacity="0.7" stroke-dasharray=""/></g><g><path fill="none" stroke="#000000" class="dcg-svg-curve" paint-order="fill stroke markers" d=" M 226.10405235712784 282.32623680249816 L 226.10405235712784 282.32623680249816 L 226.25781250000003 281.39079197005765 L 226.74609375 280.2417437062919 L 227.52734375 279.0115499303594 L 228.69921875 277.603978101974 L 230.26171875 276.12272881362435 L 232.21484375 274.68030268920546 L 234.07031250000003 273.67020699002956 L 235.63281250000006 273.1282093402813 L 236.80468750000003 272.99420254336553 L 237.5859375 273.1476246501792 L 238.07421875000003 273.4824057432683 L 238.3671875 274.028062912738 L 238.42815807945414 274.5191671362759" stroke-linecap="round" stroke-linejoin="round" stroke-miterlimit="10" stroke-width="2.5" stroke-opacity="0.7" stroke-dasharray=""/></g></g><g id="sketch-82f50641"><title>Expression 83</title><path fill="#000000" stroke="none" paint-order="stroke fill markers" d="" fill-opacity="0.4"/><path fill="#000000" stroke="none" paint-order="stroke fill markers" d="" fill-opacity="0.4"/><g><path fill="none" stroke="#000000" class="dcg-svg-curve" paint-order="fill stroke markers" d=" M 224.70543109202387 270.314901731133 L 224.70543109202387 270.314901731133 L 224.89062500000003 271.12425670470947 L 225.4765625 272.24695111515325 L 226.45312500000003 273.5569089589676 L 227.72265624999997 274.8441781792179 L 228.99218750000003 275.7682626979961 L 229.87109375000003 276.1128971402305 L 230.35937500000003 276.0445281877047 L 230.55468750000003 275.74647869257404 L 230.57638308145718 275.54206201545105" stroke-linecap="round" stroke-linejoin="round" stroke-miterlimit="10" stroke-width="2.5" stroke-opacity="0.7" stroke-dasharray=""/></g><g><path fill="none" stroke="#000000" class="dcg-svg-curve" paint-order="fill stroke markers" d=" M 224.70543109202387 270.314901731133 L 224.70543109202387 270.314901731133 L 224.89062500000003 269.83531891117417 L 225.24217562965478 269.7300822588167 L 225.86718750000003 269.88025132661096 L 226.84375 270.4443927301585 L 228.2109375 271.6274720110348 L 229.3828125 272.99542289000505 L 230.16406250000006 274.2327320712518 L 230.45703125000003 274.9154386719722 L 230.57638308145718 275.54206201545105" stroke-linecap="round" stroke-linejoin="round" stroke-miterlimit="10" stroke-width="2.5" stroke-opacity="0.7" stroke-dasharray=""/></g></g><g id="sketch-82f50641"><title>Expression 84</title><path fill="#000000" stroke="none" paint-order="stroke fill markers" d="" fill-opacity="0.4"/><path fill="#000000" stroke="none" paint-order="stroke fill markers" d="" fill-opacity="0.4"/><g><path fill="none" stroke="#000000" class="dcg-svg-curve" paint-order="fill stroke markers" d=" M 123.8287347766285 265.37449668355276 L 123.8287347766285 265.37449668355276 L 124.01171875 266.35158595431074 L 124.40234375000003 267.0847529385061 L 125.0859375 267.85458128754675 L 126.16015625 268.63774637666234 L 127.625 269.33142843661113 L 129.3828125 269.841476827841 L 131.3359375 270.121645024229 L 133.38671875 270.14546407144314 L 135.33984375000003 269.914591097939 L 137.1953125 269.4282090032574 L 138.75781250000003 268.735622331229 L 139.9296875 267.91935180333417 L 140.71093750000003 267.04805293268583 L 141.1015625 266.2825542133581 L 141.25937373103042 265.37449668355276" stroke-linecap="round" stroke-linejoin="round" stroke-miterlimit="10" stroke-width="2.5" stroke-opacity="0.7" stroke-dasharray=""/></g><g><path fill="none" stroke="#000000" class="dcg-svg-curve" paint-order="fill stroke markers" d=" M 123.8287347766285 265.37449668355276 L 123.8287347766285 265.37449668355276 L 124.01171875 264.3974074127948 L 124.40234375000003 263.66424042859944 L 125.0859375 262.8944120795588 L 126.16015625 262.1112469904432 L 127.625 261.4175649304944 L 129.3828125 260.9075165392645 L 131.3359375 260.62734834287653 L 133.38671875 260.6035292956624 L 135.33984375000003 260.8344022691665 L 137.1953125 261.32078436384813 L 138.75781250000003 262.0133710358765 L 139.9296875 262.82964156377136 L 140.71093750000003 263.7009404344197 L 141.1015625 264.46643915374744 L 141.25937373103042 265.37449668355276" stroke-linecap="round" stroke-linejoin="round" stroke-miterlimit="10" stroke-width="2.5" stroke-opacity="0.7" stroke-dasharray=""/></g></g><g id="sketch-82f50641"><title>Expression 86</title><path fill="#000000" stroke="none" paint-order="stroke fill markers" d="" fill-opacity="0.4"/><g><path fill="none" stroke="#000000" class="dcg-svg-curve" paint-order="fill stroke markers" d=" M 128.40427750215903 205.45667527779648 L 128.40427750215903 205.45667527779648 L 139.08054386173015 194.78040891822533" stroke-linecap="round" stroke-linejoin="round" stroke-miterlimit="10" stroke-width="2.5" stroke-opacity="0.7" stroke-dasharray=""/></g></g><g id="sketch-82f50641"><title>Expression 87</title><path fill="#000000" stroke="none" paint-order="stroke fill markers" d="" fill-opacity="0.4"/><g><path fill="none" stroke="#000000" class="dcg-svg-curve" paint-order="fill stroke markers" d=" M 154.61560082984076 174.97484540628628 L 154.61560082984076 174.97484540628628 L 155.87932215403492 183.82089467564523" stroke-linecap="round" stroke-linejoin="round" stroke-miterlimit="10" stroke-width="2.5" stroke-opacity="0.7" stroke-dasharray=""/></g></g><g id="sketch-82f50641"><title>Expression 88</title><path fill="#000000" stroke="none" paint-order="stroke fill markers" d="" fill-opacity="0.4"/><g><path fill="none" stroke="#000000" class="dcg-svg-curve" paint-order="fill stroke markers" d=" M 252.0855550329865 260.86431885410127 L 252.0855550329865 260.86431885410127 L 253.05513432482513 262.8034774377785" stroke-linecap="round" stroke-linejoin="round" stroke-miterlimit="10" stroke-width="2.5" stroke-opacity="0.7" stroke-dasharray=""/></g></g></g><g id="labels-82f50641"/></g></svg>