<?xml version="1.0" standalone="no"?><!DOCTYPE svg PUBLIC "-//W3C//DTD SVG 1.1//EN" "http://www.w3.org/Graphics/SVG/1.1/DTD/svg11.dtd"><svg t="1589461501013" class="icon" viewBox="0 0 1024 1024" version="1.1" xmlns="http://www.w3.org/2000/svg" p-id="2329" xmlns:xlink="http://www.w3.org/1999/xlink" width="200" height="200"><defs><style type="text/css"></style></defs><path d="M716.433554 157.202345" p-id="2330"></path><path d="M953.66049 565.131081l0.638543-0.381693L750.53114 157.261697l-0.843204 0.469698c-4.849448-5.719258-11.895935-9.093099-19.4991-9.093099L293.862329 148.638295c-7.687076 0-14.803147 3.448542-19.657712 9.283434l-0.825808-0.413416L69.753155 564.750411l0.638543 0.381693c-0.556679 2.040473-0.831948 4.076852-0.831948 6.14086l0 277.661857c0 14.32117 11.651364 25.972535 25.972535 25.972535l832.986595 0c14.322194 0 25.973558-11.651364 25.973558-25.972535L954.492438 571.272965C954.493461 569.208956 954.218192 567.172577 953.66049 565.131081zM309.91698 200.585411l404.218228 0 172.35751 344.715019L650.857023 545.30043c-14.322194 0-25.973558 11.651364-25.973558 25.972535 0 62.23032-50.628074 112.857371-112.857371 112.857371-62.23032 0-112.858394-50.628074-112.858394-112.857371 0-14.32117-11.651364-25.972535-25.972535-25.972535L137.560494 545.30043 309.91698 200.585411zM902.546346 822.963311 121.505843 822.963311 121.505843 597.247546l227.901547 0c12.598946 79.524195 81.567737 138.829905 162.618705 138.829905 81.022315 0 150.000316-59.306734 162.638147-138.829905l227.882104 0L902.546346 822.963311z" p-id="2331"></path></svg>